<svg xmlns="http://www.w3.org/2000/svg" xmlns:xlink="http://www.w3.org/1999/xlink" width="500" zoomAndPan="magnify" viewBox="0 0 375 374.999991" height="500" preserveAspectRatio="xMidYMid meet" version="1.0"><defs><clipPath id="37bfd3b84e"><path d="M 5.476562 29.851562 L 369.523438 29.851562 L 369.523438 345.507812 L 5.476562 345.507812 Z M 5.476562 29.851562 " clip-rule="nonzero"/></clipPath><clipPath id="61226818e8"><path d="M 278.511719 29.851562 L 96.488281 29.851562 L 5.476562 187.5 L 96.488281 345.148438 L 278.511719 345.148438 L 369.523438 187.5 Z M 278.511719 29.851562 " clip-rule="nonzero"/></clipPath><clipPath id="0297b89c6e"><path d="M 0.476562 0.851562 L 364.523438 0.851562 L 364.523438 316.359375 L 0.476562 316.359375 Z M 0.476562 0.851562 " clip-rule="nonzero"/></clipPath><clipPath id="9d4f86c349"><path d="M 273.511719 0.851562 L 91.488281 0.851562 L 0.476562 158.5 L 91.488281 316.148438 L 273.511719 316.148438 L 364.523438 158.5 Z M 273.511719 0.851562 " clip-rule="nonzero"/></clipPath><clipPath id="8ed947e087"><rect x="0" width="365" y="0" height="317"/></clipPath><clipPath id="9a89e1515f"><path d="M 19.578125 42.0625 L 355.421875 42.0625 L 355.421875 333 L 19.578125 333 Z M 19.578125 42.0625 " clip-rule="nonzero"/></clipPath><clipPath id="56b74c96e4"><path d="M 271.460938 42.0625 L 103.539062 42.0625 L 19.578125 187.5 L 103.539062 332.9375 L 271.460938 332.9375 L 355.421875 187.5 Z M 271.460938 42.0625 " clip-rule="nonzero"/></clipPath><clipPath id="4a8996f50c"><path d="M 0.578125 0.0625 L 336.421875 0.0625 L 336.421875 291 L 0.578125 291 Z M 0.578125 0.0625 " clip-rule="nonzero"/></clipPath><clipPath id="acc92b1582"><path d="M 252.460938 0.0625 L 84.539062 0.0625 L 0.578125 145.5 L 84.539062 290.9375 L 252.460938 290.9375 L 336.421875 145.5 Z M 252.460938 0.0625 " clip-rule="nonzero"/></clipPath><clipPath id="490a55e028"><rect x="0" width="337" y="0" height="291"/></clipPath><clipPath id="7755f333ce"><path d="M 30.441406 52.863281 L 90.96875 52.863281 L 90.96875 105.347656 L 30.441406 105.347656 Z M 30.441406 52.863281 " clip-rule="nonzero"/></clipPath><clipPath id="3fe0b85c5e"><path d="M 75.839844 52.863281 L 45.574219 52.863281 L 30.441406 79.074219 L 45.574219 105.289062 L 75.839844 105.289062 L 90.96875 79.074219 Z M 75.839844 52.863281 " clip-rule="nonzero"/></clipPath><clipPath id="6601548756"><path d="M 0.441406 0.863281 L 60.96875 0.863281 L 60.96875 53.347656 L 0.441406 53.347656 Z M 0.441406 0.863281 " clip-rule="nonzero"/></clipPath><clipPath id="91bd6c5a8a"><path d="M 45.839844 0.863281 L 15.574219 0.863281 L 0.441406 27.074219 L 15.574219 53.289062 L 45.839844 53.289062 L 60.96875 27.074219 Z M 45.839844 0.863281 " clip-rule="nonzero"/></clipPath><clipPath id="80972d9235"><rect x="0" width="61" y="0" height="54"/></clipPath><clipPath id="0d26920ae5"><path d="M 0.175781 105.289062 L 60.707031 105.289062 L 60.707031 157.773438 L 0.175781 157.773438 Z M 0.175781 105.289062 " clip-rule="nonzero"/></clipPath><clipPath id="fb386bb67b"><path d="M 45.574219 105.289062 L 15.308594 105.289062 L 0.175781 131.5 L 15.308594 157.710938 L 45.574219 157.710938 L 60.707031 131.5 Z M 45.574219 105.289062 " clip-rule="nonzero"/></clipPath><clipPath id="ff252aafa0"><path d="M 0.175781 0.289062 L 60.707031 0.289062 L 60.707031 52.773438 L 0.175781 52.773438 Z M 0.175781 0.289062 " clip-rule="nonzero"/></clipPath><clipPath id="0a9b3a0600"><path d="M 45.574219 0.289062 L 15.308594 0.289062 L 0.175781 26.5 L 15.308594 52.710938 L 45.574219 52.710938 L 60.707031 26.5 Z M 45.574219 0.289062 " clip-rule="nonzero"/></clipPath><clipPath id="13f2bf7033"><rect x="0" width="61" y="0" height="53"/></clipPath><clipPath id="98d455f831"><path d="M 60.707031 0.4375 L 121.234375 0.4375 L 121.234375 52.921875 L 60.707031 52.921875 Z M 60.707031 0.4375 " clip-rule="nonzero"/></clipPath><clipPath id="347c2fbf37"><path d="M 106.101562 0.4375 L 75.839844 0.4375 L 60.707031 26.652344 L 75.839844 52.863281 L 106.101562 52.863281 L 121.234375 26.652344 Z M 106.101562 0.4375 " clip-rule="nonzero"/></clipPath><clipPath id="85a8d58fe5"><path d="M 0.707031 0.4375 L 61.234375 0.4375 L 61.234375 52.921875 L 0.707031 52.921875 Z M 0.707031 0.4375 " clip-rule="nonzero"/></clipPath><clipPath id="3a624322c2"><path d="M 46.101562 0.4375 L 15.839844 0.4375 L 0.707031 26.652344 L 15.839844 52.863281 L 46.101562 52.863281 L 61.234375 26.652344 Z M 46.101562 0.4375 " clip-rule="nonzero"/></clipPath><clipPath id="9612d7cf17"><rect x="0" width="62" y="0" height="53"/></clipPath><clipPath id="51849c7ad2"><path d="M 30.441406 157.710938 L 90.96875 157.710938 L 90.96875 210.195312 L 30.441406 210.195312 Z M 30.441406 157.710938 " clip-rule="nonzero"/></clipPath><clipPath id="d6d968e965"><path d="M 75.839844 157.710938 L 45.574219 157.710938 L 30.441406 183.925781 L 45.574219 210.136719 L 75.839844 210.136719 L 90.96875 183.925781 Z M 75.839844 157.710938 " clip-rule="nonzero"/></clipPath><clipPath id="79d05d24ee"><path d="M 0.441406 0.710938 L 60.96875 0.710938 L 60.96875 53.160156 L 0.441406 53.160156 Z M 0.441406 0.710938 " clip-rule="nonzero"/></clipPath><clipPath id="c885b51e17"><path d="M 45.839844 0.710938 L 15.574219 0.710938 L 0.441406 26.925781 L 15.574219 53.136719 L 45.839844 53.136719 L 60.96875 26.925781 Z M 45.839844 0.710938 " clip-rule="nonzero"/></clipPath><clipPath id="d5eece2158"><rect x="0" width="61" y="0" height="54"/></clipPath><clipPath id="90836c22e8"><path d="M 60.707031 210.136719 L 121.234375 210.136719 L 121.234375 262.621094 L 60.707031 262.621094 Z M 60.707031 210.136719 " clip-rule="nonzero"/></clipPath><clipPath id="9ce776d9ca"><path d="M 106.101562 210.136719 L 75.839844 210.136719 L 60.707031 236.347656 L 75.839844 262.558594 L 106.101562 262.558594 L 121.234375 236.347656 Z M 106.101562 210.136719 " clip-rule="nonzero"/></clipPath><clipPath id="f701c36db9"><path d="M 0.707031 0.136719 L 61.234375 0.136719 L 61.234375 52.621094 L 0.707031 52.621094 Z M 0.707031 0.136719 " clip-rule="nonzero"/></clipPath><clipPath id="6971c867b6"><path d="M 46.101562 0.136719 L 15.839844 0.136719 L 0.707031 26.347656 L 15.839844 52.558594 L 46.101562 52.558594 L 61.234375 26.347656 Z M 46.101562 0.136719 " clip-rule="nonzero"/></clipPath><clipPath id="6ee1106041"><rect x="0" width="62" y="0" height="53"/></clipPath><clipPath id="7044f45b73"><path d="M 90.96875 157.710938 L 151.5 157.710938 L 151.5 210.195312 L 90.96875 210.195312 Z M 90.96875 157.710938 " clip-rule="nonzero"/></clipPath><clipPath id="8b0b142b41"><path d="M 136.367188 157.710938 L 106.101562 157.710938 L 90.96875 183.925781 L 106.101562 210.136719 L 136.367188 210.136719 L 151.5 183.925781 Z M 136.367188 157.710938 " clip-rule="nonzero"/></clipPath><clipPath id="823d09261c"><path d="M 0.96875 0.710938 L 61.5 0.710938 L 61.5 53.160156 L 0.96875 53.160156 Z M 0.96875 0.710938 " clip-rule="nonzero"/></clipPath><clipPath id="29865a2851"><path d="M 46.367188 0.710938 L 16.101562 0.710938 L 0.96875 26.925781 L 16.101562 53.136719 L 46.367188 53.136719 L 61.5 26.925781 Z M 46.367188 0.710938 " clip-rule="nonzero"/></clipPath><clipPath id="59e70ac79e"><rect x="0" width="62" y="0" height="54"/></clipPath><clipPath id="dff6ddb3a3"><path d="M 121.234375 210.136719 L 181.765625 210.136719 L 181.765625 262.621094 L 121.234375 262.621094 Z M 121.234375 210.136719 " clip-rule="nonzero"/></clipPath><clipPath id="46ffb1db9a"><path d="M 166.632812 210.136719 L 136.367188 210.136719 L 121.234375 236.347656 L 136.367188 262.558594 L 166.632812 262.558594 L 181.765625 236.347656 Z M 166.632812 210.136719 " clip-rule="nonzero"/></clipPath><clipPath id="fe726b0747"><path d="M 0.234375 0.136719 L 60.765625 0.136719 L 60.765625 52.621094 L 0.234375 52.621094 Z M 0.234375 0.136719 " clip-rule="nonzero"/></clipPath><clipPath id="e6267df33e"><path d="M 45.632812 0.136719 L 15.367188 0.136719 L 0.234375 26.347656 L 15.367188 52.558594 L 45.632812 52.558594 L 60.765625 26.347656 Z M 45.632812 0.136719 " clip-rule="nonzero"/></clipPath><clipPath id="62328f2f61"><rect x="0" width="61" y="0" height="53"/></clipPath><clipPath id="bfc790484b"><path d="M 151.5 157.710938 L 212.03125 157.710938 L 212.03125 210.195312 L 151.5 210.195312 Z M 151.5 157.710938 " clip-rule="nonzero"/></clipPath><clipPath id="87bf6baf61"><path d="M 196.898438 157.710938 L 166.632812 157.710938 L 151.5 183.925781 L 166.632812 210.136719 L 196.898438 210.136719 L 212.03125 183.925781 Z M 196.898438 157.710938 " clip-rule="nonzero"/></clipPath><clipPath id="5398369569"><path d="M 0.5 0.710938 L 61.03125 0.710938 L 61.03125 53.160156 L 0.5 53.160156 Z M 0.5 0.710938 " clip-rule="nonzero"/></clipPath><clipPath id="a70382d4fe"><path d="M 45.898438 0.710938 L 15.632812 0.710938 L 0.5 26.925781 L 15.632812 53.136719 L 45.898438 53.136719 L 61.03125 26.925781 Z M 45.898438 0.710938 " clip-rule="nonzero"/></clipPath><clipPath id="6d80302d6e"><rect x="0" width="62" y="0" height="54"/></clipPath><clipPath id="efe2b771a4"><path d="M 60.707031 105.289062 L 121.234375 105.289062 L 121.234375 157.773438 L 60.707031 157.773438 Z M 60.707031 105.289062 " clip-rule="nonzero"/></clipPath><clipPath id="315686f680"><path d="M 106.101562 105.289062 L 75.839844 105.289062 L 60.707031 131.5 L 75.839844 157.710938 L 106.101562 157.710938 L 121.234375 131.5 Z M 106.101562 105.289062 " clip-rule="nonzero"/></clipPath><clipPath id="e594d3f949"><path d="M 0.707031 0.289062 L 61.234375 0.289062 L 61.234375 52.773438 L 0.707031 52.773438 Z M 0.707031 0.289062 " clip-rule="nonzero"/></clipPath><clipPath id="a67ba1e58e"><path d="M 46.101562 0.289062 L 15.839844 0.289062 L 0.707031 26.5 L 15.839844 52.710938 L 46.101562 52.710938 L 61.234375 26.5 Z M 46.101562 0.289062 " clip-rule="nonzero"/></clipPath><clipPath id="8acfde5d44"><rect x="0" width="62" y="0" height="53"/></clipPath><clipPath id="33cb95db3f"><path d="M 121.234375 105.289062 L 181.765625 105.289062 L 181.765625 157.773438 L 121.234375 157.773438 Z M 121.234375 105.289062 " clip-rule="nonzero"/></clipPath><clipPath id="972ee0552b"><path d="M 166.632812 105.289062 L 136.367188 105.289062 L 121.234375 131.5 L 136.367188 157.710938 L 166.632812 157.710938 L 181.765625 131.5 Z M 166.632812 105.289062 " clip-rule="nonzero"/></clipPath><clipPath id="ad3cf291f0"><path d="M 0.234375 0.289062 L 60.765625 0.289062 L 60.765625 52.773438 L 0.234375 52.773438 Z M 0.234375 0.289062 " clip-rule="nonzero"/></clipPath><clipPath id="bbc940c6f6"><path d="M 45.632812 0.289062 L 15.367188 0.289062 L 0.234375 26.5 L 15.367188 52.710938 L 45.632812 52.710938 L 60.765625 26.5 Z M 45.632812 0.289062 " clip-rule="nonzero"/></clipPath><clipPath id="f349f5f38f"><rect x="0" width="61" y="0" height="53"/></clipPath><clipPath id="7b710b0068"><path d="M 181.765625 105.289062 L 242.292969 105.289062 L 242.292969 157.773438 L 181.765625 157.773438 Z M 181.765625 105.289062 " clip-rule="nonzero"/></clipPath><clipPath id="f077390d5c"><path d="M 227.160156 105.289062 L 196.898438 105.289062 L 181.765625 131.5 L 196.898438 157.710938 L 227.160156 157.710938 L 242.292969 131.5 Z M 227.160156 105.289062 " clip-rule="nonzero"/></clipPath><clipPath id="d2f2f482bc"><path d="M 0.765625 0.289062 L 61.292969 0.289062 L 61.292969 52.773438 L 0.765625 52.773438 Z M 0.765625 0.289062 " clip-rule="nonzero"/></clipPath><clipPath id="4764562aa2"><path d="M 46.160156 0.289062 L 15.898438 0.289062 L 0.765625 26.5 L 15.898438 52.710938 L 46.160156 52.710938 L 61.292969 26.5 Z M 46.160156 0.289062 " clip-rule="nonzero"/></clipPath><clipPath id="f9747ce27b"><rect x="0" width="62" y="0" height="53"/></clipPath><clipPath id="d285a83aa0"><path d="M 90.96875 52.863281 L 151.5 52.863281 L 151.5 105.347656 L 90.96875 105.347656 Z M 90.96875 52.863281 " clip-rule="nonzero"/></clipPath><clipPath id="b35595f265"><path d="M 136.367188 52.863281 L 106.101562 52.863281 L 90.96875 79.074219 L 106.101562 105.289062 L 136.367188 105.289062 L 151.5 79.074219 Z M 136.367188 52.863281 " clip-rule="nonzero"/></clipPath><clipPath id="08913f317f"><path d="M 0.96875 0.863281 L 61.5 0.863281 L 61.5 53.347656 L 0.96875 53.347656 Z M 0.96875 0.863281 " clip-rule="nonzero"/></clipPath><clipPath id="22bc0a1deb"><path d="M 46.367188 0.863281 L 16.101562 0.863281 L 0.96875 27.074219 L 16.101562 53.289062 L 46.367188 53.289062 L 61.5 27.074219 Z M 46.367188 0.863281 " clip-rule="nonzero"/></clipPath><clipPath id="7cd787201d"><rect x="0" width="62" y="0" height="54"/></clipPath><clipPath id="11ddb00308"><path d="M 151.5 52.863281 L 212.03125 52.863281 L 212.03125 105.347656 L 151.5 105.347656 Z M 151.5 52.863281 " clip-rule="nonzero"/></clipPath><clipPath id="87adbb87e6"><path d="M 196.898438 52.863281 L 166.632812 52.863281 L 151.5 79.074219 L 166.632812 105.289062 L 196.898438 105.289062 L 212.03125 79.074219 Z M 196.898438 52.863281 " clip-rule="nonzero"/></clipPath><clipPath id="19430ff803"><path d="M 0.5 0.863281 L 61.03125 0.863281 L 61.03125 53.347656 L 0.5 53.347656 Z M 0.5 0.863281 " clip-rule="nonzero"/></clipPath><clipPath id="86648bc0f4"><path d="M 45.898438 0.863281 L 15.632812 0.863281 L 0.5 27.074219 L 15.632812 53.289062 L 45.898438 53.289062 L 61.03125 27.074219 Z M 45.898438 0.863281 " clip-rule="nonzero"/></clipPath><clipPath id="29b821ce88"><rect x="0" width="62" y="0" height="54"/></clipPath><clipPath id="2e8b4e59d8"><path d="M 121.234375 0.4375 L 181.765625 0.4375 L 181.765625 52.921875 L 121.234375 52.921875 Z M 121.234375 0.4375 " clip-rule="nonzero"/></clipPath><clipPath id="8c3dcba7df"><path d="M 166.632812 0.4375 L 136.367188 0.4375 L 121.234375 26.652344 L 136.367188 52.863281 L 166.632812 52.863281 L 181.765625 26.652344 Z M 166.632812 0.4375 " clip-rule="nonzero"/></clipPath><clipPath id="61f3544b26"><path d="M 0.234375 0.4375 L 60.765625 0.4375 L 60.765625 52.921875 L 0.234375 52.921875 Z M 0.234375 0.4375 " clip-rule="nonzero"/></clipPath><clipPath id="6c6b19ce69"><path d="M 45.632812 0.4375 L 15.367188 0.4375 L 0.234375 26.652344 L 15.367188 52.863281 L 45.632812 52.863281 L 60.765625 26.652344 Z M 45.632812 0.4375 " clip-rule="nonzero"/></clipPath><clipPath id="0c63af3518"><rect x="0" width="61" y="0" height="53"/></clipPath><clipPath id="8d1177cec2"><path d="M 181.765625 0.4375 L 242.292969 0.4375 L 242.292969 52.921875 L 181.765625 52.921875 Z M 181.765625 0.4375 " clip-rule="nonzero"/></clipPath><clipPath id="831026f429"><path d="M 227.160156 0.4375 L 196.898438 0.4375 L 181.765625 26.652344 L 196.898438 52.863281 L 227.160156 52.863281 L 242.292969 26.652344 Z M 227.160156 0.4375 " clip-rule="nonzero"/></clipPath><clipPath id="d01754f1cf"><path d="M 0.765625 0.4375 L 61.292969 0.4375 L 61.292969 52.921875 L 0.765625 52.921875 Z M 0.765625 0.4375 " clip-rule="nonzero"/></clipPath><clipPath id="02e8ce5c38"><path d="M 46.160156 0.4375 L 15.898438 0.4375 L 0.765625 26.652344 L 15.898438 52.863281 L 46.160156 52.863281 L 61.292969 26.652344 Z M 46.160156 0.4375 " clip-rule="nonzero"/></clipPath><clipPath id="f0790f03bd"><rect x="0" width="62" y="0" height="53"/></clipPath><clipPath id="479fe4f8b9"><path d="M 212.03125 52.863281 L 272.558594 52.863281 L 272.558594 105.347656 L 212.03125 105.347656 Z M 212.03125 52.863281 " clip-rule="nonzero"/></clipPath><clipPath id="b5934d94bb"><path d="M 257.425781 52.863281 L 227.160156 52.863281 L 212.03125 79.074219 L 227.160156 105.289062 L 257.425781 105.289062 L 272.558594 79.074219 Z M 257.425781 52.863281 " clip-rule="nonzero"/></clipPath><clipPath id="9a68b61c86"><path d="M 0.03125 0.863281 L 60.558594 0.863281 L 60.558594 53.347656 L 0.03125 53.347656 Z M 0.03125 0.863281 " clip-rule="nonzero"/></clipPath><clipPath id="6474f435d8"><path d="M 45.425781 0.863281 L 15.160156 0.863281 L 0.03125 27.074219 L 15.160156 53.289062 L 45.425781 53.289062 L 60.558594 27.074219 Z M 45.425781 0.863281 " clip-rule="nonzero"/></clipPath><clipPath id="be78e21bcf"><rect x="0" width="61" y="0" height="54"/></clipPath><clipPath id="edbaee0e77"><path d="M 181.765625 210.136719 L 242.292969 210.136719 L 242.292969 262.621094 L 181.765625 262.621094 Z M 181.765625 210.136719 " clip-rule="nonzero"/></clipPath><clipPath id="4f1289340c"><path d="M 227.160156 210.136719 L 196.898438 210.136719 L 181.765625 236.347656 L 196.898438 262.558594 L 227.160156 262.558594 L 242.292969 236.347656 Z M 227.160156 210.136719 " clip-rule="nonzero"/></clipPath><clipPath id="a265394dc2"><path d="M 0.765625 0.136719 L 61.292969 0.136719 L 61.292969 52.621094 L 0.765625 52.621094 Z M 0.765625 0.136719 " clip-rule="nonzero"/></clipPath><clipPath id="d3ce35f04c"><path d="M 46.160156 0.136719 L 15.898438 0.136719 L 0.765625 26.347656 L 15.898438 52.558594 L 46.160156 52.558594 L 61.292969 26.347656 Z M 46.160156 0.136719 " clip-rule="nonzero"/></clipPath><clipPath id="d8f4933b80"><rect x="0" width="62" y="0" height="53"/></clipPath><clipPath id="df126c7eba"><path d="M 212.03125 157.710938 L 272.558594 157.710938 L 272.558594 210.195312 L 212.03125 210.195312 Z M 212.03125 157.710938 " clip-rule="nonzero"/></clipPath><clipPath id="f0ef9f2aaf"><path d="M 257.425781 157.710938 L 227.160156 157.710938 L 212.03125 183.925781 L 227.160156 210.136719 L 257.425781 210.136719 L 272.558594 183.925781 Z M 257.425781 157.710938 " clip-rule="nonzero"/></clipPath><clipPath id="6bbdde1b1a"><path d="M 0.03125 0.710938 L 60.558594 0.710938 L 60.558594 53.160156 L 0.03125 53.160156 Z M 0.03125 0.710938 " clip-rule="nonzero"/></clipPath><clipPath id="b69ce3210c"><path d="M 45.425781 0.710938 L 15.160156 0.710938 L 0.03125 26.925781 L 15.160156 53.136719 L 45.425781 53.136719 L 60.558594 26.925781 Z M 45.425781 0.710938 " clip-rule="nonzero"/></clipPath><clipPath id="26b9101b2b"><rect x="0" width="61" y="0" height="54"/></clipPath><clipPath id="b9cbb65886"><path d="M 242.292969 105.289062 L 302.824219 105.289062 L 302.824219 157.773438 L 242.292969 157.773438 Z M 242.292969 105.289062 " clip-rule="nonzero"/></clipPath><clipPath id="7a90e9ea2e"><path d="M 287.691406 105.289062 L 257.425781 105.289062 L 242.292969 131.5 L 257.425781 157.710938 L 287.691406 157.710938 L 302.824219 131.5 Z M 287.691406 105.289062 " clip-rule="nonzero"/></clipPath><clipPath id="807e36c99e"><path d="M 0.292969 0.289062 L 60.824219 0.289062 L 60.824219 52.773438 L 0.292969 52.773438 Z M 0.292969 0.289062 " clip-rule="nonzero"/></clipPath><clipPath id="6d2f926beb"><path d="M 45.691406 0.289062 L 15.425781 0.289062 L 0.292969 26.5 L 15.425781 52.710938 L 45.691406 52.710938 L 60.824219 26.5 Z M 45.691406 0.289062 " clip-rule="nonzero"/></clipPath><clipPath id="3af69d6c21"><rect x="0" width="61" y="0" height="53"/></clipPath><clipPath id="89bfd93d80"><rect x="0" width="303" y="0" height="263"/></clipPath></defs><g clip-path="url(#37bfd3b84e)"><g clip-path="url(#61226818e8)"><g transform="matrix(1, 0, 0, 1, 5, 29)"><g clip-path="url(#8ed947e087)"><g clip-path="url(#0297b89c6e)"><g clip-path="url(#9d4f86c349)"><path fill="#ffffff" d="M 0.476562 0.851562 L 364.523438 0.851562 L 364.523438 316.507812 L 0.476562 316.507812 Z M 0.476562 0.851562 " fill-opacity="1" fill-rule="nonzero"/></g></g></g></g></g></g><g clip-path="url(#9a89e1515f)"><g clip-path="url(#56b74c96e4)"><g transform="matrix(1, 0, 0, 1, 19, 42)"><g clip-path="url(#490a55e028)"><g clip-path="url(#4a8996f50c)"><g clip-path="url(#acc92b1582)"><path fill="#000000" d="M 0.578125 0.0625 L 336.421875 0.0625 L 336.421875 291.265625 L 0.578125 291.265625 Z M 0.578125 0.0625 " fill-opacity="1" fill-rule="nonzero"/></g></g></g></g></g></g><g transform="matrix(1, 0, 0, 1, 36, 56)"><g clip-path="url(#89bfd93d80)"><g clip-path="url(#7755f333ce)"><g clip-path="url(#3fe0b85c5e)"><g transform="matrix(1, 0, 0, 1, 30, 52)"><g clip-path="url(#80972d9235)"><g clip-path="url(#6601548756)"><g clip-path="url(#91bd6c5a8a)"><path fill="#ffffff" d="M 0.441406 0.863281 L 60.96875 0.863281 L 60.96875 53.347656 L 0.441406 53.347656 Z M 0.441406 0.863281 " fill-opacity="1" fill-rule="nonzero"/></g></g></g></g></g></g><g clip-path="url(#0d26920ae5)"><g clip-path="url(#fb386bb67b)"><g transform="matrix(1, 0, 0, 1, -0.000000000000007105, 105)"><g clip-path="url(#13f2bf7033)"><g clip-path="url(#ff252aafa0)"><g clip-path="url(#0a9b3a0600)"><path fill="#ffffff" d="M 0.175781 0.289062 L 60.707031 0.289062 L 60.707031 52.773438 L 0.175781 52.773438 Z M 0.175781 0.289062 " fill-opacity="1" fill-rule="nonzero"/></g></g></g></g></g></g><g clip-path="url(#98d455f831)"><g clip-path="url(#347c2fbf37)"><g transform="matrix(1, 0, 0, 1, 60, 0)"><g clip-path="url(#9612d7cf17)"><g clip-path="url(#85a8d58fe5)"><g clip-path="url(#3a624322c2)"><path fill="#ffffff" d="M 0.707031 0.4375 L 61.234375 0.4375 L 61.234375 52.921875 L 0.707031 52.921875 Z M 0.707031 0.4375 " fill-opacity="1" fill-rule="nonzero"/></g></g></g></g></g></g><g clip-path="url(#51849c7ad2)"><g clip-path="url(#d6d968e965)"><g transform="matrix(1, 0, 0, 1, 30, 157)"><g clip-path="url(#d5eece2158)"><g clip-path="url(#79d05d24ee)"><g clip-path="url(#c885b51e17)"><path fill="#ffffff" d="M 0.441406 0.710938 L 60.96875 0.710938 L 60.96875 53.195312 L 0.441406 53.195312 Z M 0.441406 0.710938 " fill-opacity="1" fill-rule="nonzero"/></g></g></g></g></g></g><g clip-path="url(#90836c22e8)"><g clip-path="url(#9ce776d9ca)"><g transform="matrix(1, 0, 0, 1, 60, 210)"><g clip-path="url(#6ee1106041)"><g clip-path="url(#f701c36db9)"><g clip-path="url(#6971c867b6)"><path fill="#ffffff" d="M 0.707031 0.136719 L 61.234375 0.136719 L 61.234375 52.621094 L 0.707031 52.621094 Z M 0.707031 0.136719 " fill-opacity="1" fill-rule="nonzero"/></g></g></g></g></g></g><g clip-path="url(#7044f45b73)"><g clip-path="url(#8b0b142b41)"><g transform="matrix(1, 0, 0, 1, 90, 157)"><g clip-path="url(#59e70ac79e)"><g clip-path="url(#823d09261c)"><g clip-path="url(#29865a2851)"><path fill="#ffffff" d="M 0.96875 0.710938 L 61.5 0.710938 L 61.5 53.195312 L 0.96875 53.195312 Z M 0.96875 0.710938 " fill-opacity="1" fill-rule="nonzero"/></g></g></g></g></g></g><g clip-path="url(#dff6ddb3a3)"><g clip-path="url(#46ffb1db9a)"><g transform="matrix(1, 0, 0, 1, 121, 210)"><g clip-path="url(#62328f2f61)"><g clip-path="url(#fe726b0747)"><g clip-path="url(#e6267df33e)"><path fill="#ffffff" d="M 0.234375 0.136719 L 60.765625 0.136719 L 60.765625 52.621094 L 0.234375 52.621094 Z M 0.234375 0.136719 " fill-opacity="1" fill-rule="nonzero"/></g></g></g></g></g></g><g clip-path="url(#bfc790484b)"><g clip-path="url(#87bf6baf61)"><g transform="matrix(1, 0, 0, 1, 151, 157)"><g clip-path="url(#6d80302d6e)"><g clip-path="url(#5398369569)"><g clip-path="url(#a70382d4fe)"><path fill="#ffffff" d="M 0.5 0.710938 L 61.03125 0.710938 L 61.03125 53.195312 L 0.5 53.195312 Z M 0.5 0.710938 " fill-opacity="1" fill-rule="nonzero"/></g></g></g></g></g></g><g clip-path="url(#efe2b771a4)"><g clip-path="url(#315686f680)"><g transform="matrix(1, 0, 0, 1, 60, 105)"><g clip-path="url(#8acfde5d44)"><g clip-path="url(#e594d3f949)"><g clip-path="url(#a67ba1e58e)"><path fill="#ffffff" d="M 0.707031 0.289062 L 61.234375 0.289062 L 61.234375 52.773438 L 0.707031 52.773438 Z M 0.707031 0.289062 " fill-opacity="1" fill-rule="nonzero"/></g></g></g></g></g></g><g clip-path="url(#33cb95db3f)"><g clip-path="url(#972ee0552b)"><g transform="matrix(1, 0, 0, 1, 121, 105)"><g clip-path="url(#f349f5f38f)"><g clip-path="url(#ad3cf291f0)"><g clip-path="url(#bbc940c6f6)"><path fill="#ffffff" d="M 0.234375 0.289062 L 60.765625 0.289062 L 60.765625 52.773438 L 0.234375 52.773438 Z M 0.234375 0.289062 " fill-opacity="1" fill-rule="nonzero"/></g></g></g></g></g></g><g clip-path="url(#7b710b0068)"><g clip-path="url(#f077390d5c)"><g transform="matrix(1, 0, 0, 1, 181, 105)"><g clip-path="url(#f9747ce27b)"><g clip-path="url(#d2f2f482bc)"><g clip-path="url(#4764562aa2)"><path fill="#ffffff" d="M 0.765625 0.289062 L 61.292969 0.289062 L 61.292969 52.773438 L 0.765625 52.773438 Z M 0.765625 0.289062 " fill-opacity="1" fill-rule="nonzero"/></g></g></g></g></g></g><g clip-path="url(#d285a83aa0)"><g clip-path="url(#b35595f265)"><g transform="matrix(1, 0, 0, 1, 90, 52)"><g clip-path="url(#7cd787201d)"><g clip-path="url(#08913f317f)"><g clip-path="url(#22bc0a1deb)"><path fill="#ffffff" d="M 0.96875 0.863281 L 61.5 0.863281 L 61.5 53.347656 L 0.96875 53.347656 Z M 0.96875 0.863281 " fill-opacity="1" fill-rule="nonzero"/></g></g></g></g></g></g><g clip-path="url(#11ddb00308)"><g clip-path="url(#87adbb87e6)"><g transform="matrix(1, 0, 0, 1, 151, 52)"><g clip-path="url(#29b821ce88)"><g clip-path="url(#19430ff803)"><g clip-path="url(#86648bc0f4)"><path fill="#ffffff" d="M 0.5 0.863281 L 61.03125 0.863281 L 61.03125 53.347656 L 0.5 53.347656 Z M 0.5 0.863281 " fill-opacity="1" fill-rule="nonzero"/></g></g></g></g></g></g><g clip-path="url(#2e8b4e59d8)"><g clip-path="url(#8c3dcba7df)"><g transform="matrix(1, 0, 0, 1, 121, 0)"><g clip-path="url(#0c63af3518)"><g clip-path="url(#61f3544b26)"><g clip-path="url(#6c6b19ce69)"><path fill="#ffffff" d="M 0.234375 0.4375 L 60.765625 0.4375 L 60.765625 52.921875 L 0.234375 52.921875 Z M 0.234375 0.4375 " fill-opacity="1" fill-rule="nonzero"/></g></g></g></g></g></g><g clip-path="url(#8d1177cec2)"><g clip-path="url(#831026f429)"><g transform="matrix(1, 0, 0, 1, 181, 0)"><g clip-path="url(#f0790f03bd)"><g clip-path="url(#d01754f1cf)"><g clip-path="url(#02e8ce5c38)"><path fill="#ffffff" d="M 0.765625 0.4375 L 61.292969 0.4375 L 61.292969 52.921875 L 0.765625 52.921875 Z M 0.765625 0.4375 " fill-opacity="1" fill-rule="nonzero"/></g></g></g></g></g></g><g clip-path="url(#479fe4f8b9)"><g clip-path="url(#b5934d94bb)"><g transform="matrix(1, 0, 0, 1, 212, 52)"><g clip-path="url(#be78e21bcf)"><g clip-path="url(#9a68b61c86)"><g clip-path="url(#6474f435d8)"><path fill="#ffffff" d="M 0.03125 0.863281 L 60.558594 0.863281 L 60.558594 53.347656 L 0.03125 53.347656 Z M 0.03125 0.863281 " fill-opacity="1" fill-rule="nonzero"/></g></g></g></g></g></g><g clip-path="url(#edbaee0e77)"><g clip-path="url(#4f1289340c)"><g transform="matrix(1, 0, 0, 1, 181, 210)"><g clip-path="url(#d8f4933b80)"><g clip-path="url(#a265394dc2)"><g clip-path="url(#d3ce35f04c)"><path fill="#ffffff" d="M 0.765625 0.136719 L 61.292969 0.136719 L 61.292969 52.621094 L 0.765625 52.621094 Z M 0.765625 0.136719 " fill-opacity="1" fill-rule="nonzero"/></g></g></g></g></g></g><g clip-path="url(#df126c7eba)"><g clip-path="url(#f0ef9f2aaf)"><g transform="matrix(1, 0, 0, 1, 212, 157)"><g clip-path="url(#26b9101b2b)"><g clip-path="url(#6bbdde1b1a)"><g clip-path="url(#b69ce3210c)"><path fill="#ffffff" d="M 0.03125 0.710938 L 60.558594 0.710938 L 60.558594 53.195312 L 0.03125 53.195312 Z M 0.03125 0.710938 " fill-opacity="1" fill-rule="nonzero"/></g></g></g></g></g></g><g clip-path="url(#b9cbb65886)"><g clip-path="url(#7a90e9ea2e)"><g transform="matrix(1, 0, 0, 1, 242, 105)"><g clip-path="url(#3af69d6c21)"><g clip-path="url(#807e36c99e)"><g clip-path="url(#6d2f926beb)"><path fill="#ffffff" d="M 0.292969 0.289062 L 60.824219 0.289062 L 60.824219 52.773438 L 0.292969 52.773438 Z M 0.292969 0.289062 " fill-opacity="1" fill-rule="nonzero"/></g></g></g></g></g></g></g></g></svg>