<svg xmlns="http://www.w3.org/2000/svg" xmlns:xlink="http://www.w3.org/1999/xlink" width="500" zoomAndPan="magnify" viewBox="0 0 375 374.999991" height="500" preserveAspectRatio="xMidYMid meet" version="1.0"><defs><g/><clipPath id="a6010fa6a2"><path d="M 23.371094 22.90625 L 351.628906 22.90625 L 351.628906 307.53125 L 23.371094 307.53125 Z M 23.371094 22.90625 " clip-rule="nonzero"/></clipPath><clipPath id="307e5f4733"><path d="M 269.5625 22.90625 L 105.4375 22.90625 L 23.371094 165.058594 L 105.4375 307.207031 L 269.5625 307.207031 L 351.628906 165.058594 Z M 269.5625 22.90625 " clip-rule="nonzero"/></clipPath><clipPath id="f5ebd98eef"><path d="M 0.371094 0.90625 L 328.628906 0.90625 L 328.628906 285.441406 L 0.371094 285.441406 Z M 0.371094 0.90625 " clip-rule="nonzero"/></clipPath><clipPath id="b35c2c16c5"><path d="M 246.5625 0.90625 L 82.4375 0.90625 L 0.371094 143.058594 L 82.4375 285.207031 L 246.5625 285.207031 L 328.628906 143.058594 Z M 246.5625 0.90625 " clip-rule="nonzero"/></clipPath><clipPath id="737b9b2e95"><rect x="0" width="329" y="0" height="286"/></clipPath><clipPath id="c2919d36fb"><path d="M 36.085938 33.917969 L 338.914062 33.917969 L 338.914062 296.492188 L 36.085938 296.492188 Z M 36.085938 33.917969 " clip-rule="nonzero"/></clipPath><clipPath id="25a9932684"><path d="M 263.207031 33.917969 L 111.792969 33.917969 L 36.085938 165.058594 L 111.792969 296.195312 L 263.207031 296.195312 L 338.914062 165.058594 Z M 263.207031 33.917969 " clip-rule="nonzero"/></clipPath><clipPath id="a9a994a6df"><path d="M 0.0859375 0.917969 L 302.914062 0.917969 L 302.914062 263.398438 L 0.0859375 263.398438 Z M 0.0859375 0.917969 " clip-rule="nonzero"/></clipPath><clipPath id="cc8ac0d363"><path d="M 227.207031 0.917969 L 75.792969 0.917969 L 0.0859375 132.058594 L 75.792969 263.195312 L 227.207031 263.195312 L 302.914062 132.058594 Z M 227.207031 0.917969 " clip-rule="nonzero"/></clipPath><clipPath id="ba00620bdf"><rect x="0" width="303" y="0" height="264"/></clipPath><clipPath id="3f96a346f5"><path d="M 28.34375 48.152344 L 82.921875 48.152344 L 82.921875 95.476562 L 28.34375 95.476562 Z M 28.34375 48.152344 " clip-rule="nonzero"/></clipPath><clipPath id="fecbaeaa0f"><path d="M 69.277344 48.152344 L 41.988281 48.152344 L 28.34375 71.789062 L 41.988281 95.421875 L 69.277344 95.421875 L 82.921875 71.789062 Z M 69.277344 48.152344 " clip-rule="nonzero"/></clipPath><clipPath id="af02ccdbdb"><path d="M 0.34375 0.152344 L 54.921875 0.152344 L 54.921875 47.476562 L 0.34375 47.476562 Z M 0.34375 0.152344 " clip-rule="nonzero"/></clipPath><clipPath id="ef3aeb4be9"><path d="M 41.277344 0.152344 L 13.988281 0.152344 L 0.34375 23.789062 L 13.988281 47.421875 L 41.277344 47.421875 L 54.921875 23.789062 Z M 41.277344 0.152344 " clip-rule="nonzero"/></clipPath><clipPath id="3482b4f323"><rect x="0" width="55" y="0" height="48"/></clipPath><clipPath id="05897ae0e9"><path d="M 1.054688 95.421875 L 55.632812 95.421875 L 55.632812 142.746094 L 1.054688 142.746094 Z M 1.054688 95.421875 " clip-rule="nonzero"/></clipPath><clipPath id="a09a6699d6"><path d="M 41.988281 95.421875 L 14.699219 95.421875 L 1.054688 119.058594 L 14.699219 142.691406 L 41.988281 142.691406 L 55.632812 119.058594 Z M 41.988281 95.421875 " clip-rule="nonzero"/></clipPath><clipPath id="1a1b141b2a"><path d="M 0.0546875 0.421875 L 54.632812 0.421875 L 54.632812 47.746094 L 0.0546875 47.746094 Z M 0.0546875 0.421875 " clip-rule="nonzero"/></clipPath><clipPath id="65db818f17"><path d="M 40.988281 0.421875 L 13.699219 0.421875 L 0.0546875 24.058594 L 13.699219 47.691406 L 40.988281 47.691406 L 54.632812 24.058594 Z M 40.988281 0.421875 " clip-rule="nonzero"/></clipPath><clipPath id="960b62a9d1"><rect x="0" width="55" y="0" height="48"/></clipPath><clipPath id="96607ac81d"><path d="M 55.632812 0.882812 L 110.210938 0.882812 L 110.210938 48.207031 L 55.632812 48.207031 Z M 55.632812 0.882812 " clip-rule="nonzero"/></clipPath><clipPath id="9d241fccb7"><path d="M 96.566406 0.882812 L 69.277344 0.882812 L 55.632812 24.515625 L 69.277344 48.152344 L 96.566406 48.152344 L 110.210938 24.515625 Z M 96.566406 0.882812 " clip-rule="nonzero"/></clipPath><clipPath id="bfc57d1ddf"><path d="M 0.632812 0.882812 L 55.210938 0.882812 L 55.210938 48.207031 L 0.632812 48.207031 Z M 0.632812 0.882812 " clip-rule="nonzero"/></clipPath><clipPath id="7c982c0f90"><path d="M 41.566406 0.882812 L 14.277344 0.882812 L 0.632812 24.515625 L 14.277344 48.152344 L 41.566406 48.152344 L 55.210938 24.515625 Z M 41.566406 0.882812 " clip-rule="nonzero"/></clipPath><clipPath id="91c627fe93"><rect x="0" width="56" y="0" height="49"/></clipPath><clipPath id="325274166d"><path d="M 28.34375 142.691406 L 82.921875 142.691406 L 82.921875 190 L 28.34375 190 Z M 28.34375 142.691406 " clip-rule="nonzero"/></clipPath><clipPath id="4fc7fc04ec"><path d="M 69.277344 142.691406 L 41.988281 142.691406 L 28.34375 166.328125 L 41.988281 189.964844 L 69.277344 189.964844 L 82.921875 166.328125 Z M 69.277344 142.691406 " clip-rule="nonzero"/></clipPath><clipPath id="2787da5c43"><path d="M 0.34375 0.691406 L 54.921875 0.691406 L 54.921875 48 L 0.34375 48 Z M 0.34375 0.691406 " clip-rule="nonzero"/></clipPath><clipPath id="f8f9438ceb"><path d="M 41.277344 0.691406 L 13.988281 0.691406 L 0.34375 24.328125 L 13.988281 47.964844 L 41.277344 47.964844 L 54.921875 24.328125 Z M 41.277344 0.691406 " clip-rule="nonzero"/></clipPath><clipPath id="2766c33d01"><rect x="0" width="55" y="0" height="48"/></clipPath><clipPath id="5e8bd72d8e"><path d="M 55.632812 189.964844 L 110.210938 189.964844 L 110.210938 237.289062 L 55.632812 237.289062 Z M 55.632812 189.964844 " clip-rule="nonzero"/></clipPath><clipPath id="6e3418c45b"><path d="M 96.566406 189.964844 L 69.277344 189.964844 L 55.632812 213.597656 L 69.277344 237.234375 L 96.566406 237.234375 L 110.210938 213.597656 Z M 96.566406 189.964844 " clip-rule="nonzero"/></clipPath><clipPath id="1762886e22"><path d="M 0.632812 0.964844 L 55.210938 0.964844 L 55.210938 48.289062 L 0.632812 48.289062 Z M 0.632812 0.964844 " clip-rule="nonzero"/></clipPath><clipPath id="fc2fb51ab5"><path d="M 41.566406 0.964844 L 14.277344 0.964844 L 0.632812 24.597656 L 14.277344 48.234375 L 41.566406 48.234375 L 55.210938 24.597656 Z M 41.566406 0.964844 " clip-rule="nonzero"/></clipPath><clipPath id="cbbea41549"><rect x="0" width="56" y="0" height="49"/></clipPath><clipPath id="064ce0339c"><path d="M 82.921875 142.691406 L 137.5 142.691406 L 137.5 190 L 82.921875 190 Z M 82.921875 142.691406 " clip-rule="nonzero"/></clipPath><clipPath id="4da5dd5572"><path d="M 123.855469 142.691406 L 96.566406 142.691406 L 82.921875 166.328125 L 96.566406 189.964844 L 123.855469 189.964844 L 137.5 166.328125 Z M 123.855469 142.691406 " clip-rule="nonzero"/></clipPath><clipPath id="b0b2376d23"><path d="M 0.921875 0.691406 L 55.5 0.691406 L 55.5 48 L 0.921875 48 Z M 0.921875 0.691406 " clip-rule="nonzero"/></clipPath><clipPath id="0dbf16b137"><path d="M 41.855469 0.691406 L 14.566406 0.691406 L 0.921875 24.328125 L 14.566406 47.964844 L 41.855469 47.964844 L 55.5 24.328125 Z M 41.855469 0.691406 " clip-rule="nonzero"/></clipPath><clipPath id="ae0e049f21"><rect x="0" width="56" y="0" height="48"/></clipPath><clipPath id="ebfed418a5"><path d="M 110.210938 189.964844 L 164.789062 189.964844 L 164.789062 237.289062 L 110.210938 237.289062 Z M 110.210938 189.964844 " clip-rule="nonzero"/></clipPath><clipPath id="1a5922a247"><path d="M 151.144531 189.964844 L 123.855469 189.964844 L 110.210938 213.597656 L 123.855469 237.234375 L 151.144531 237.234375 L 164.789062 213.597656 Z M 151.144531 189.964844 " clip-rule="nonzero"/></clipPath><clipPath id="192aeae38f"><path d="M 0.210938 0.964844 L 54.789062 0.964844 L 54.789062 48.289062 L 0.210938 48.289062 Z M 0.210938 0.964844 " clip-rule="nonzero"/></clipPath><clipPath id="a6277bd820"><path d="M 41.144531 0.964844 L 13.855469 0.964844 L 0.210938 24.597656 L 13.855469 48.234375 L 41.144531 48.234375 L 54.789062 24.597656 Z M 41.144531 0.964844 " clip-rule="nonzero"/></clipPath><clipPath id="03acf6e762"><rect x="0" width="55" y="0" height="49"/></clipPath><clipPath id="b867f89c93"><path d="M 137.5 142.691406 L 192.078125 142.691406 L 192.078125 190 L 137.5 190 Z M 137.5 142.691406 " clip-rule="nonzero"/></clipPath><clipPath id="3dffc4db43"><path d="M 178.433594 142.691406 L 151.144531 142.691406 L 137.5 166.328125 L 151.144531 189.964844 L 178.433594 189.964844 L 192.078125 166.328125 Z M 178.433594 142.691406 " clip-rule="nonzero"/></clipPath><clipPath id="78923a1c2d"><path d="M 0.5 0.691406 L 55.078125 0.691406 L 55.078125 48 L 0.5 48 Z M 0.5 0.691406 " clip-rule="nonzero"/></clipPath><clipPath id="820f35a23b"><path d="M 41.433594 0.691406 L 14.144531 0.691406 L 0.5 24.328125 L 14.144531 47.964844 L 41.433594 47.964844 L 55.078125 24.328125 Z M 41.433594 0.691406 " clip-rule="nonzero"/></clipPath><clipPath id="e996127208"><rect x="0" width="56" y="0" height="48"/></clipPath><clipPath id="45d5ffadb8"><path d="M 55.632812 95.421875 L 110.210938 95.421875 L 110.210938 142.746094 L 55.632812 142.746094 Z M 55.632812 95.421875 " clip-rule="nonzero"/></clipPath><clipPath id="fff4ba6bf7"><path d="M 96.566406 95.421875 L 69.277344 95.421875 L 55.632812 119.058594 L 69.277344 142.691406 L 96.566406 142.691406 L 110.210938 119.058594 Z M 96.566406 95.421875 " clip-rule="nonzero"/></clipPath><clipPath id="1300a8de5e"><path d="M 0.632812 0.421875 L 55.210938 0.421875 L 55.210938 47.746094 L 0.632812 47.746094 Z M 0.632812 0.421875 " clip-rule="nonzero"/></clipPath><clipPath id="a959de8c8a"><path d="M 41.566406 0.421875 L 14.277344 0.421875 L 0.632812 24.058594 L 14.277344 47.691406 L 41.566406 47.691406 L 55.210938 24.058594 Z M 41.566406 0.421875 " clip-rule="nonzero"/></clipPath><clipPath id="60cd24b7ed"><rect x="0" width="56" y="0" height="48"/></clipPath><clipPath id="51432bb364"><path d="M 110.210938 95.421875 L 164.789062 95.421875 L 164.789062 142.746094 L 110.210938 142.746094 Z M 110.210938 95.421875 " clip-rule="nonzero"/></clipPath><clipPath id="412da54689"><path d="M 151.144531 95.421875 L 123.855469 95.421875 L 110.210938 119.058594 L 123.855469 142.691406 L 151.144531 142.691406 L 164.789062 119.058594 Z M 151.144531 95.421875 " clip-rule="nonzero"/></clipPath><clipPath id="5bd3fcca39"><path d="M 0.210938 0.421875 L 54.789062 0.421875 L 54.789062 47.746094 L 0.210938 47.746094 Z M 0.210938 0.421875 " clip-rule="nonzero"/></clipPath><clipPath id="125d0a482b"><path d="M 41.144531 0.421875 L 13.855469 0.421875 L 0.210938 24.058594 L 13.855469 47.691406 L 41.144531 47.691406 L 54.789062 24.058594 Z M 41.144531 0.421875 " clip-rule="nonzero"/></clipPath><clipPath id="82b0aea7de"><rect x="0" width="55" y="0" height="48"/></clipPath><clipPath id="3e5cca8b56"><path d="M 164.789062 95.421875 L 219.367188 95.421875 L 219.367188 142.746094 L 164.789062 142.746094 Z M 164.789062 95.421875 " clip-rule="nonzero"/></clipPath><clipPath id="6237edee08"><path d="M 205.722656 95.421875 L 178.433594 95.421875 L 164.789062 119.058594 L 178.433594 142.691406 L 205.722656 142.691406 L 219.367188 119.058594 Z M 205.722656 95.421875 " clip-rule="nonzero"/></clipPath><clipPath id="dc0adf4bf9"><path d="M 0.789062 0.421875 L 55.367188 0.421875 L 55.367188 47.746094 L 0.789062 47.746094 Z M 0.789062 0.421875 " clip-rule="nonzero"/></clipPath><clipPath id="4b0b780af7"><path d="M 41.722656 0.421875 L 14.433594 0.421875 L 0.789062 24.058594 L 14.433594 47.691406 L 41.722656 47.691406 L 55.367188 24.058594 Z M 41.722656 0.421875 " clip-rule="nonzero"/></clipPath><clipPath id="964551ef0d"><rect x="0" width="56" y="0" height="48"/></clipPath><clipPath id="df3f7a8367"><path d="M 82.921875 48.152344 L 137.5 48.152344 L 137.5 95.476562 L 82.921875 95.476562 Z M 82.921875 48.152344 " clip-rule="nonzero"/></clipPath><clipPath id="70c44e1d77"><path d="M 123.855469 48.152344 L 96.566406 48.152344 L 82.921875 71.789062 L 96.566406 95.421875 L 123.855469 95.421875 L 137.5 71.789062 Z M 123.855469 48.152344 " clip-rule="nonzero"/></clipPath><clipPath id="576cb5fa0b"><path d="M 0.921875 0.152344 L 55.5 0.152344 L 55.5 47.476562 L 0.921875 47.476562 Z M 0.921875 0.152344 " clip-rule="nonzero"/></clipPath><clipPath id="a65641cecd"><path d="M 41.855469 0.152344 L 14.566406 0.152344 L 0.921875 23.789062 L 14.566406 47.421875 L 41.855469 47.421875 L 55.5 23.789062 Z M 41.855469 0.152344 " clip-rule="nonzero"/></clipPath><clipPath id="d0a7b5ee1a"><rect x="0" width="56" y="0" height="48"/></clipPath><clipPath id="e651f2366e"><path d="M 137.5 48.152344 L 192.078125 48.152344 L 192.078125 95.476562 L 137.5 95.476562 Z M 137.5 48.152344 " clip-rule="nonzero"/></clipPath><clipPath id="7765c99e6a"><path d="M 178.433594 48.152344 L 151.144531 48.152344 L 137.5 71.789062 L 151.144531 95.421875 L 178.433594 95.421875 L 192.078125 71.789062 Z M 178.433594 48.152344 " clip-rule="nonzero"/></clipPath><clipPath id="f27721dcae"><path d="M 0.5 0.152344 L 55.078125 0.152344 L 55.078125 47.476562 L 0.5 47.476562 Z M 0.5 0.152344 " clip-rule="nonzero"/></clipPath><clipPath id="694cafd95c"><path d="M 41.433594 0.152344 L 14.144531 0.152344 L 0.5 23.789062 L 14.144531 47.421875 L 41.433594 47.421875 L 55.078125 23.789062 Z M 41.433594 0.152344 " clip-rule="nonzero"/></clipPath><clipPath id="5f034249e3"><rect x="0" width="56" y="0" height="48"/></clipPath><clipPath id="1698f7fd5c"><path d="M 110.210938 0.882812 L 164.789062 0.882812 L 164.789062 48.207031 L 110.210938 48.207031 Z M 110.210938 0.882812 " clip-rule="nonzero"/></clipPath><clipPath id="5f5f149013"><path d="M 151.144531 0.882812 L 123.855469 0.882812 L 110.210938 24.515625 L 123.855469 48.152344 L 151.144531 48.152344 L 164.789062 24.515625 Z M 151.144531 0.882812 " clip-rule="nonzero"/></clipPath><clipPath id="882eb34db2"><path d="M 0.210938 0.882812 L 54.789062 0.882812 L 54.789062 48.207031 L 0.210938 48.207031 Z M 0.210938 0.882812 " clip-rule="nonzero"/></clipPath><clipPath id="7c86cd8cfd"><path d="M 41.144531 0.882812 L 13.855469 0.882812 L 0.210938 24.515625 L 13.855469 48.152344 L 41.144531 48.152344 L 54.789062 24.515625 Z M 41.144531 0.882812 " clip-rule="nonzero"/></clipPath><clipPath id="c07c0ab6d0"><rect x="0" width="55" y="0" height="49"/></clipPath><clipPath id="d8914c8e22"><path d="M 164.789062 0.882812 L 219.367188 0.882812 L 219.367188 48.207031 L 164.789062 48.207031 Z M 164.789062 0.882812 " clip-rule="nonzero"/></clipPath><clipPath id="295c06375d"><path d="M 205.722656 0.882812 L 178.433594 0.882812 L 164.789062 24.515625 L 178.433594 48.152344 L 205.722656 48.152344 L 219.367188 24.515625 Z M 205.722656 0.882812 " clip-rule="nonzero"/></clipPath><clipPath id="060770aeb0"><path d="M 0.789062 0.882812 L 55.367188 0.882812 L 55.367188 48.207031 L 0.789062 48.207031 Z M 0.789062 0.882812 " clip-rule="nonzero"/></clipPath><clipPath id="a665b5cba2"><path d="M 41.722656 0.882812 L 14.433594 0.882812 L 0.789062 24.515625 L 14.433594 48.152344 L 41.722656 48.152344 L 55.367188 24.515625 Z M 41.722656 0.882812 " clip-rule="nonzero"/></clipPath><clipPath id="33acfb9710"><rect x="0" width="56" y="0" height="49"/></clipPath><clipPath id="f14f1f1774"><path d="M 192.078125 48.152344 L 246.65625 48.152344 L 246.65625 95.476562 L 192.078125 95.476562 Z M 192.078125 48.152344 " clip-rule="nonzero"/></clipPath><clipPath id="4a4ddbe4db"><path d="M 233.011719 48.152344 L 205.722656 48.152344 L 192.078125 71.789062 L 205.722656 95.421875 L 233.011719 95.421875 L 246.65625 71.789062 Z M 233.011719 48.152344 " clip-rule="nonzero"/></clipPath><clipPath id="8a0b45f666"><path d="M 0.078125 0.152344 L 54.65625 0.152344 L 54.65625 47.476562 L 0.078125 47.476562 Z M 0.078125 0.152344 " clip-rule="nonzero"/></clipPath><clipPath id="b2ef22f6a9"><path d="M 41.011719 0.152344 L 13.722656 0.152344 L 0.078125 23.789062 L 13.722656 47.421875 L 41.011719 47.421875 L 54.65625 23.789062 Z M 41.011719 0.152344 " clip-rule="nonzero"/></clipPath><clipPath id="66abe0cd50"><rect x="0" width="55" y="0" height="48"/></clipPath><clipPath id="e9721d1452"><path d="M 164.789062 189.964844 L 219.367188 189.964844 L 219.367188 237.289062 L 164.789062 237.289062 Z M 164.789062 189.964844 " clip-rule="nonzero"/></clipPath><clipPath id="b31dd765ed"><path d="M 205.722656 189.964844 L 178.433594 189.964844 L 164.789062 213.597656 L 178.433594 237.234375 L 205.722656 237.234375 L 219.367188 213.597656 Z M 205.722656 189.964844 " clip-rule="nonzero"/></clipPath><clipPath id="9e75f4dc4c"><path d="M 0.789062 0.964844 L 55.367188 0.964844 L 55.367188 48.289062 L 0.789062 48.289062 Z M 0.789062 0.964844 " clip-rule="nonzero"/></clipPath><clipPath id="bcd08b0154"><path d="M 41.722656 0.964844 L 14.433594 0.964844 L 0.789062 24.597656 L 14.433594 48.234375 L 41.722656 48.234375 L 55.367188 24.597656 Z M 41.722656 0.964844 " clip-rule="nonzero"/></clipPath><clipPath id="639b1363e3"><rect x="0" width="56" y="0" height="49"/></clipPath><clipPath id="fc572c449c"><path d="M 192.078125 142.691406 L 246.65625 142.691406 L 246.65625 190 L 192.078125 190 Z M 192.078125 142.691406 " clip-rule="nonzero"/></clipPath><clipPath id="0744ef477b"><path d="M 233.011719 142.691406 L 205.722656 142.691406 L 192.078125 166.328125 L 205.722656 189.964844 L 233.011719 189.964844 L 246.65625 166.328125 Z M 233.011719 142.691406 " clip-rule="nonzero"/></clipPath><clipPath id="56b6f5b295"><path d="M 0.078125 0.691406 L 54.65625 0.691406 L 54.65625 48 L 0.078125 48 Z M 0.078125 0.691406 " clip-rule="nonzero"/></clipPath><clipPath id="4c15fb1609"><path d="M 41.011719 0.691406 L 13.722656 0.691406 L 0.078125 24.328125 L 13.722656 47.964844 L 41.011719 47.964844 L 54.65625 24.328125 Z M 41.011719 0.691406 " clip-rule="nonzero"/></clipPath><clipPath id="05925c193c"><rect x="0" width="55" y="0" height="48"/></clipPath><clipPath id="f39239ca76"><path d="M 219.367188 95.421875 L 273.945312 95.421875 L 273.945312 142.746094 L 219.367188 142.746094 Z M 219.367188 95.421875 " clip-rule="nonzero"/></clipPath><clipPath id="bec288af25"><path d="M 260.300781 95.421875 L 233.011719 95.421875 L 219.367188 119.058594 L 233.011719 142.691406 L 260.300781 142.691406 L 273.945312 119.058594 Z M 260.300781 95.421875 " clip-rule="nonzero"/></clipPath><clipPath id="06aa41259e"><path d="M 0.367188 0.421875 L 54.945312 0.421875 L 54.945312 47.746094 L 0.367188 47.746094 Z M 0.367188 0.421875 " clip-rule="nonzero"/></clipPath><clipPath id="1ef2ec7cad"><path d="M 41.300781 0.421875 L 14.011719 0.421875 L 0.367188 24.058594 L 14.011719 47.691406 L 41.300781 47.691406 L 54.945312 24.058594 Z M 41.300781 0.421875 " clip-rule="nonzero"/></clipPath><clipPath id="126849d702"><rect x="0" width="55" y="0" height="48"/></clipPath><clipPath id="752878b375"><rect x="0" width="274" y="0" height="238"/></clipPath><clipPath id="ffae38a9fb"><rect x="0" width="249" y="0" height="47"/></clipPath></defs><g clip-path="url(#a6010fa6a2)"><g clip-path="url(#307e5f4733)"><g transform="matrix(1, 0, 0, 1, 23, 22)"><g clip-path="url(#737b9b2e95)"><g clip-path="url(#f5ebd98eef)"><g clip-path="url(#b35c2c16c5)"><path fill="#ffffff" d="M 0.371094 0.90625 L 328.628906 0.90625 L 328.628906 285.53125 L 0.371094 285.53125 Z M 0.371094 0.90625 " fill-opacity="1" fill-rule="nonzero"/></g></g></g></g></g></g><g clip-path="url(#c2919d36fb)"><g clip-path="url(#25a9932684)"><g transform="matrix(1, 0, 0, 1, 36, 33)"><g clip-path="url(#ba00620bdf)"><g clip-path="url(#a9a994a6df)"><g clip-path="url(#cc8ac0d363)"><path fill="#000000" d="M 0.0859375 0.917969 L 302.914062 0.917969 L 302.914062 263.492188 L 0.0859375 263.492188 Z M 0.0859375 0.917969 " fill-opacity="1" fill-rule="nonzero"/></g></g></g></g></g></g><g transform="matrix(1, 0, 0, 1, 50, 46)"><g clip-path="url(#752878b375)"><g clip-path="url(#3f96a346f5)"><g clip-path="url(#fecbaeaa0f)"><g transform="matrix(1, 0, 0, 1, 28, 48)"><g clip-path="url(#3482b4f323)"><g clip-path="url(#af02ccdbdb)"><g clip-path="url(#ef3aeb4be9)"><path fill="#ffffff" d="M 0.34375 0.152344 L 54.921875 0.152344 L 54.921875 47.476562 L 0.34375 47.476562 Z M 0.34375 0.152344 " fill-opacity="1" fill-rule="nonzero"/></g></g></g></g></g></g><g clip-path="url(#05897ae0e9)"><g clip-path="url(#a09a6699d6)"><g transform="matrix(1, 0, 0, 1, 1, 95)"><g clip-path="url(#960b62a9d1)"><g clip-path="url(#1a1b141b2a)"><g clip-path="url(#65db818f17)"><path fill="#ffffff" d="M 0.0546875 0.421875 L 54.632812 0.421875 L 54.632812 47.746094 L 0.0546875 47.746094 Z M 0.0546875 0.421875 " fill-opacity="1" fill-rule="nonzero"/></g></g></g></g></g></g><g clip-path="url(#96607ac81d)"><g clip-path="url(#9d241fccb7)"><g transform="matrix(1, 0, 0, 1, 55, 0)"><g clip-path="url(#91c627fe93)"><g clip-path="url(#bfc57d1ddf)"><g clip-path="url(#7c982c0f90)"><path fill="#ffffff" d="M 0.632812 0.882812 L 55.210938 0.882812 L 55.210938 48.207031 L 0.632812 48.207031 Z M 0.632812 0.882812 " fill-opacity="1" fill-rule="nonzero"/></g></g></g></g></g></g><g clip-path="url(#325274166d)"><g clip-path="url(#4fc7fc04ec)"><g transform="matrix(1, 0, 0, 1, 28, 142)"><g clip-path="url(#2766c33d01)"><g clip-path="url(#2787da5c43)"><g clip-path="url(#f8f9438ceb)"><path fill="#ffffff" d="M 0.34375 0.691406 L 54.921875 0.691406 L 54.921875 48.015625 L 0.34375 48.015625 Z M 0.34375 0.691406 " fill-opacity="1" fill-rule="nonzero"/></g></g></g></g></g></g><g clip-path="url(#5e8bd72d8e)"><g clip-path="url(#6e3418c45b)"><g transform="matrix(1, 0, 0, 1, 55, 189)"><g clip-path="url(#cbbea41549)"><g clip-path="url(#1762886e22)"><g clip-path="url(#fc2fb51ab5)"><path fill="#ffffff" d="M 0.632812 0.964844 L 55.210938 0.964844 L 55.210938 48.289062 L 0.632812 48.289062 Z M 0.632812 0.964844 " fill-opacity="1" fill-rule="nonzero"/></g></g></g></g></g></g><g clip-path="url(#064ce0339c)"><g clip-path="url(#4da5dd5572)"><g transform="matrix(1, 0, 0, 1, 82, 142)"><g clip-path="url(#ae0e049f21)"><g clip-path="url(#b0b2376d23)"><g clip-path="url(#0dbf16b137)"><path fill="#ffffff" d="M 0.921875 0.691406 L 55.5 0.691406 L 55.5 48.015625 L 0.921875 48.015625 Z M 0.921875 0.691406 " fill-opacity="1" fill-rule="nonzero"/></g></g></g></g></g></g><g clip-path="url(#ebfed418a5)"><g clip-path="url(#1a5922a247)"><g transform="matrix(1, 0, 0, 1, 110, 189)"><g clip-path="url(#03acf6e762)"><g clip-path="url(#192aeae38f)"><g clip-path="url(#a6277bd820)"><path fill="#ffffff" d="M 0.210938 0.964844 L 54.789062 0.964844 L 54.789062 48.289062 L 0.210938 48.289062 Z M 0.210938 0.964844 " fill-opacity="1" fill-rule="nonzero"/></g></g></g></g></g></g><g clip-path="url(#b867f89c93)"><g clip-path="url(#3dffc4db43)"><g transform="matrix(1, 0, 0, 1, 137, 142)"><g clip-path="url(#e996127208)"><g clip-path="url(#78923a1c2d)"><g clip-path="url(#820f35a23b)"><path fill="#ffffff" d="M 0.5 0.691406 L 55.078125 0.691406 L 55.078125 48.015625 L 0.5 48.015625 Z M 0.5 0.691406 " fill-opacity="1" fill-rule="nonzero"/></g></g></g></g></g></g><g clip-path="url(#45d5ffadb8)"><g clip-path="url(#fff4ba6bf7)"><g transform="matrix(1, 0, 0, 1, 55, 95)"><g clip-path="url(#60cd24b7ed)"><g clip-path="url(#1300a8de5e)"><g clip-path="url(#a959de8c8a)"><path fill="#ffffff" d="M 0.632812 0.421875 L 55.210938 0.421875 L 55.210938 47.746094 L 0.632812 47.746094 Z M 0.632812 0.421875 " fill-opacity="1" fill-rule="nonzero"/></g></g></g></g></g></g><g clip-path="url(#51432bb364)"><g clip-path="url(#412da54689)"><g transform="matrix(1, 0, 0, 1, 110, 95)"><g clip-path="url(#82b0aea7de)"><g clip-path="url(#5bd3fcca39)"><g clip-path="url(#125d0a482b)"><path fill="#ffffff" d="M 0.210938 0.421875 L 54.789062 0.421875 L 54.789062 47.746094 L 0.210938 47.746094 Z M 0.210938 0.421875 " fill-opacity="1" fill-rule="nonzero"/></g></g></g></g></g></g><g clip-path="url(#3e5cca8b56)"><g clip-path="url(#6237edee08)"><g transform="matrix(1, 0, 0, 1, 164, 95)"><g clip-path="url(#964551ef0d)"><g clip-path="url(#dc0adf4bf9)"><g clip-path="url(#4b0b780af7)"><path fill="#ffffff" d="M 0.789062 0.421875 L 55.367188 0.421875 L 55.367188 47.746094 L 0.789062 47.746094 Z M 0.789062 0.421875 " fill-opacity="1" fill-rule="nonzero"/></g></g></g></g></g></g><g clip-path="url(#df3f7a8367)"><g clip-path="url(#70c44e1d77)"><g transform="matrix(1, 0, 0, 1, 82, 48)"><g clip-path="url(#d0a7b5ee1a)"><g clip-path="url(#576cb5fa0b)"><g clip-path="url(#a65641cecd)"><path fill="#ffffff" d="M 0.921875 0.152344 L 55.5 0.152344 L 55.5 47.476562 L 0.921875 47.476562 Z M 0.921875 0.152344 " fill-opacity="1" fill-rule="nonzero"/></g></g></g></g></g></g><g clip-path="url(#e651f2366e)"><g clip-path="url(#7765c99e6a)"><g transform="matrix(1, 0, 0, 1, 137, 48)"><g clip-path="url(#5f034249e3)"><g clip-path="url(#f27721dcae)"><g clip-path="url(#694cafd95c)"><path fill="#ffffff" d="M 0.5 0.152344 L 55.078125 0.152344 L 55.078125 47.476562 L 0.5 47.476562 Z M 0.5 0.152344 " fill-opacity="1" fill-rule="nonzero"/></g></g></g></g></g></g><g clip-path="url(#1698f7fd5c)"><g clip-path="url(#5f5f149013)"><g transform="matrix(1, 0, 0, 1, 110, 0)"><g clip-path="url(#c07c0ab6d0)"><g clip-path="url(#882eb34db2)"><g clip-path="url(#7c86cd8cfd)"><path fill="#ffffff" d="M 0.210938 0.882812 L 54.789062 0.882812 L 54.789062 48.207031 L 0.210938 48.207031 Z M 0.210938 0.882812 " fill-opacity="1" fill-rule="nonzero"/></g></g></g></g></g></g><g clip-path="url(#d8914c8e22)"><g clip-path="url(#295c06375d)"><g transform="matrix(1, 0, 0, 1, 164, 0)"><g clip-path="url(#33acfb9710)"><g clip-path="url(#060770aeb0)"><g clip-path="url(#a665b5cba2)"><path fill="#ffffff" d="M 0.789062 0.882812 L 55.367188 0.882812 L 55.367188 48.207031 L 0.789062 48.207031 Z M 0.789062 0.882812 " fill-opacity="1" fill-rule="nonzero"/></g></g></g></g></g></g><g clip-path="url(#f14f1f1774)"><g clip-path="url(#4a4ddbe4db)"><g transform="matrix(1, 0, 0, 1, 192, 48)"><g clip-path="url(#66abe0cd50)"><g clip-path="url(#8a0b45f666)"><g clip-path="url(#b2ef22f6a9)"><path fill="#ffffff" d="M 0.078125 0.152344 L 54.65625 0.152344 L 54.65625 47.476562 L 0.078125 47.476562 Z M 0.078125 0.152344 " fill-opacity="1" fill-rule="nonzero"/></g></g></g></g></g></g><g clip-path="url(#e9721d1452)"><g clip-path="url(#b31dd765ed)"><g transform="matrix(1, 0, 0, 1, 164, 189)"><g clip-path="url(#639b1363e3)"><g clip-path="url(#9e75f4dc4c)"><g clip-path="url(#bcd08b0154)"><path fill="#ffffff" d="M 0.789062 0.964844 L 55.367188 0.964844 L 55.367188 48.289062 L 0.789062 48.289062 Z M 0.789062 0.964844 " fill-opacity="1" fill-rule="nonzero"/></g></g></g></g></g></g><g clip-path="url(#fc572c449c)"><g clip-path="url(#0744ef477b)"><g transform="matrix(1, 0, 0, 1, 192, 142)"><g clip-path="url(#05925c193c)"><g clip-path="url(#56b6f5b295)"><g clip-path="url(#4c15fb1609)"><path fill="#ffffff" d="M 0.078125 0.691406 L 54.65625 0.691406 L 54.65625 48.015625 L 0.078125 48.015625 Z M 0.078125 0.691406 " fill-opacity="1" fill-rule="nonzero"/></g></g></g></g></g></g><g clip-path="url(#f39239ca76)"><g clip-path="url(#bec288af25)"><g transform="matrix(1, 0, 0, 1, 219, 95)"><g clip-path="url(#126849d702)"><g clip-path="url(#06aa41259e)"><g clip-path="url(#1ef2ec7cad)"><path fill="#ffffff" d="M 0.367188 0.421875 L 54.945312 0.421875 L 54.945312 47.746094 L 0.367188 47.746094 Z M 0.367188 0.421875 " fill-opacity="1" fill-rule="nonzero"/></g></g></g></g></g></g></g></g><g transform="matrix(1, 0, 0, 1, 66, 316)"><g clip-path="url(#ffae38a9fb)"><g fill="#ffffff" fill-opacity="1"><g transform="translate(2.740141, 36.633554)"><g><path d="M 20.34375 -5.609375 L 8.1875 -5.609375 L 5.875 0 L -0.34375 0 L 11.328125 -26.1875 L 17.3125 -26.1875 L 29.03125 0 L 22.671875 0 Z M 18.4375 -10.21875 L 14.296875 -20.234375 L 10.140625 -10.21875 Z M 18.4375 -10.21875 "/></g></g></g><g fill="#ffffff" fill-opacity="1"><g transform="translate(38.874833, 36.633554)"><g><path d="M 22.328125 -13.609375 C 23.828125 -13.140625 25 -12.347656 25.84375 -11.234375 C 26.695312 -10.128906 27.125 -8.765625 27.125 -7.140625 C 27.125 -4.847656 26.226562 -3.082031 24.4375 -1.84375 C 22.65625 -0.613281 20.054688 0 16.640625 0 L 3.109375 0 L 3.109375 -26.1875 L 15.890625 -26.1875 C 19.085938 -26.1875 21.539062 -25.570312 23.25 -24.34375 C 24.957031 -23.125 25.8125 -21.46875 25.8125 -19.375 C 25.8125 -18.101562 25.503906 -16.96875 24.890625 -15.96875 C 24.285156 -14.96875 23.429688 -14.179688 22.328125 -13.609375 Z M 9.125 -21.625 L 9.125 -15.453125 L 15.15625 -15.453125 C 16.644531 -15.453125 17.773438 -15.710938 18.546875 -16.234375 C 19.328125 -16.753906 19.71875 -17.523438 19.71875 -18.546875 C 19.71875 -19.578125 19.328125 -20.347656 18.546875 -20.859375 C 17.773438 -21.367188 16.644531 -21.625 15.15625 -21.625 Z M 16.203125 -4.5625 C 17.796875 -4.5625 18.992188 -4.820312 19.796875 -5.34375 C 20.609375 -5.875 21.015625 -6.6875 21.015625 -7.78125 C 21.015625 -9.945312 19.410156 -11.03125 16.203125 -11.03125 L 9.125 -11.03125 L 9.125 -4.5625 Z M 16.203125 -4.5625 "/></g></g></g><g fill="#ffffff" fill-opacity="1"><g transform="translate(74.972104, 36.633554)"><g><path d="M 20.34375 -5.609375 L 8.1875 -5.609375 L 5.875 0 L -0.34375 0 L 11.328125 -26.1875 L 17.3125 -26.1875 L 29.03125 0 L 22.671875 0 Z M 18.4375 -10.21875 L 14.296875 -20.234375 L 10.140625 -10.21875 Z M 18.4375 -10.21875 "/></g></g></g><g fill="#ffffff" fill-opacity="1"><g transform="translate(111.106796, 36.633554)"><g><path d="M 19.78125 0 L 14.734375 -7.296875 L 9.171875 -7.296875 L 9.171875 0 L 3.109375 0 L 3.109375 -26.1875 L 14.4375 -26.1875 C 16.757812 -26.1875 18.773438 -25.796875 20.484375 -25.015625 C 22.191406 -24.242188 23.503906 -23.144531 24.421875 -21.71875 C 25.347656 -20.300781 25.8125 -18.625 25.8125 -16.6875 C 25.8125 -14.738281 25.34375 -13.054688 24.40625 -11.640625 C 23.46875 -10.234375 22.140625 -9.160156 20.421875 -8.421875 L 26.296875 0 Z M 19.671875 -16.6875 C 19.671875 -18.15625 19.195312 -19.28125 18.25 -20.0625 C 17.300781 -20.851562 15.921875 -21.25 14.109375 -21.25 L 9.171875 -21.25 L 9.171875 -12.125 L 14.109375 -12.125 C 15.921875 -12.125 17.300781 -12.519531 18.25 -13.3125 C 19.195312 -14.113281 19.671875 -15.238281 19.671875 -16.6875 Z M 19.671875 -16.6875 "/></g></g></g><g fill="#ffffff" fill-opacity="1"><g transform="translate(146.081892, 36.633554)"><g><path d="M 15.640625 0.453125 C 12.972656 0.453125 10.554688 -0.125 8.390625 -1.28125 C 6.234375 -2.445312 4.535156 -4.054688 3.296875 -6.109375 C 2.066406 -8.171875 1.453125 -10.5 1.453125 -13.09375 C 1.453125 -15.6875 2.066406 -18.007812 3.296875 -20.0625 C 4.535156 -22.125 6.234375 -23.734375 8.390625 -24.890625 C 10.554688 -26.054688 12.984375 -26.640625 15.671875 -26.640625 C 17.941406 -26.640625 19.992188 -26.238281 21.828125 -25.4375 C 23.660156 -24.632812 25.203125 -23.488281 26.453125 -22 L 22.5625 -18.40625 C 20.789062 -20.445312 18.59375 -21.46875 15.96875 -21.46875 C 14.351562 -21.46875 12.90625 -21.113281 11.625 -20.40625 C 10.351562 -19.695312 9.363281 -18.707031 8.65625 -17.4375 C 7.945312 -16.164062 7.59375 -14.71875 7.59375 -13.09375 C 7.59375 -11.46875 7.945312 -10.019531 8.65625 -8.75 C 9.363281 -7.476562 10.351562 -6.488281 11.625 -5.78125 C 12.90625 -5.070312 14.351562 -4.71875 15.96875 -4.71875 C 18.59375 -4.71875 20.789062 -5.75 22.5625 -7.8125 L 26.453125 -4.234375 C 25.203125 -2.703125 23.65625 -1.535156 21.8125 -0.734375 C 19.96875 0.0546875 17.910156 0.453125 15.640625 0.453125 Z M 15.640625 0.453125 "/></g></g></g><g fill="#ffffff" fill-opacity="1"><g transform="translate(180.982181, 36.633554)"><g><path d="M 20.34375 -5.609375 L 8.1875 -5.609375 L 5.875 0 L -0.34375 0 L 11.328125 -26.1875 L 17.3125 -26.1875 L 29.03125 0 L 22.671875 0 Z M 18.4375 -10.21875 L 14.296875 -20.234375 L 10.140625 -10.21875 Z M 18.4375 -10.21875 "/></g></g></g><g fill="#ffffff" fill-opacity="1"><g transform="translate(217.116873, 36.633554)"><g><path d="M 8.53125 -21.25 L 0.15625 -21.25 L 0.15625 -26.1875 L 22.96875 -26.1875 L 22.96875 -21.25 L 14.59375 -21.25 L 14.59375 0 L 8.53125 0 Z M 8.53125 -21.25 "/></g></g></g></g></g></svg>