<svg xmlns="http://www.w3.org/2000/svg" xmlns:xlink="http://www.w3.org/1999/xlink" width="500" zoomAndPan="magnify" viewBox="0 0 375 374.999991" height="500" preserveAspectRatio="xMidYMid meet" version="1.0"><defs><g/><clipPath id="a62216c025"><path d="M 16.820312 18.15625 L 358.179688 18.15625 L 358.179688 314 L 16.820312 314 Z M 16.820312 18.15625 " clip-rule="nonzero"/></clipPath><clipPath id="d7053c5676"><path d="M 272.839844 18.15625 L 102.160156 18.15625 L 16.820312 165.980469 L 102.160156 313.800781 L 272.839844 313.800781 L 358.179688 165.980469 Z M 272.839844 18.15625 " clip-rule="nonzero"/></clipPath><clipPath id="bfbf7294a9"><path d="M 0.820312 0.15625 L 342.179688 0.15625 L 342.179688 295.921875 L 0.820312 295.921875 Z M 0.820312 0.15625 " clip-rule="nonzero"/></clipPath><clipPath id="6b13676048"><path d="M 256.839844 0.15625 L 86.160156 0.15625 L 0.820312 147.980469 L 86.160156 295.800781 L 256.839844 295.800781 L 342.179688 147.980469 Z M 256.839844 0.15625 " clip-rule="nonzero"/></clipPath><clipPath id="67bdfb4b6b"><rect x="0" width="343" y="0" height="296"/></clipPath><clipPath id="8b0fe6c3ea"><path d="M 30.042969 29.605469 L 344.957031 29.605469 L 344.957031 302.660156 L 30.042969 302.660156 Z M 30.042969 29.605469 " clip-rule="nonzero"/></clipPath><clipPath id="da1855ae53"><path d="M 266.226562 29.605469 L 108.773438 29.605469 L 30.042969 165.980469 L 108.773438 302.351562 L 266.226562 302.351562 L 344.957031 165.980469 Z M 266.226562 29.605469 " clip-rule="nonzero"/></clipPath><clipPath id="d87d3d2b10"><path d="M 0.0429688 0.605469 L 314.957031 0.605469 L 314.957031 273.398438 L 0.0429688 273.398438 Z M 0.0429688 0.605469 " clip-rule="nonzero"/></clipPath><clipPath id="0e3c40ea17"><path d="M 236.226562 0.605469 L 78.773438 0.605469 L 0.0429688 136.980469 L 78.773438 273.351562 L 236.226562 273.351562 L 314.957031 136.980469 Z M 236.226562 0.605469 " clip-rule="nonzero"/></clipPath><clipPath id="0156a473d4"><rect x="0" width="315" y="0" height="274"/></clipPath><clipPath id="de009e49f0"><path d="M 28.984375 50.242188 L 85.742188 50.242188 L 85.742188 99.457031 L 28.984375 99.457031 Z M 28.984375 50.242188 " clip-rule="nonzero"/></clipPath><clipPath id="a13092b428"><path d="M 71.554688 50.242188 L 43.175781 50.242188 L 28.984375 74.820312 L 43.175781 99.398438 L 71.554688 99.398438 L 85.742188 74.820312 Z M 71.554688 50.242188 " clip-rule="nonzero"/></clipPath><clipPath id="2d9212cc23"><path d="M 0.984375 0.242188 L 57.742188 0.242188 L 57.742188 49.457031 L 0.984375 49.457031 Z M 0.984375 0.242188 " clip-rule="nonzero"/></clipPath><clipPath id="9ea6493365"><path d="M 43.554688 0.242188 L 15.175781 0.242188 L 0.984375 24.820312 L 15.175781 49.398438 L 43.554688 49.398438 L 57.742188 24.820312 Z M 43.554688 0.242188 " clip-rule="nonzero"/></clipPath><clipPath id="47e6180523"><rect x="0" width="58" y="0" height="50"/></clipPath><clipPath id="6aaa747ab8"><path d="M 0.605469 99.398438 L 57.363281 99.398438 L 57.363281 148.613281 L 0.605469 148.613281 Z M 0.605469 99.398438 " clip-rule="nonzero"/></clipPath><clipPath id="f548c9982d"><path d="M 43.175781 99.398438 L 14.796875 99.398438 L 0.605469 123.980469 L 14.796875 148.558594 L 43.175781 148.558594 L 57.363281 123.980469 Z M 43.175781 99.398438 " clip-rule="nonzero"/></clipPath><clipPath id="1fbbda6c78"><path d="M 0.605469 0.398438 L 57.363281 0.398438 L 57.363281 49.558594 L 0.605469 49.558594 Z M 0.605469 0.398438 " clip-rule="nonzero"/></clipPath><clipPath id="86f2413048"><path d="M 43.175781 0.398438 L 14.796875 0.398438 L 0.605469 24.980469 L 14.796875 49.558594 L 43.175781 49.558594 L 57.363281 24.980469 Z M 43.175781 0.398438 " clip-rule="nonzero"/></clipPath><clipPath id="f617d6cb72"><rect x="0" width="58" y="0" height="50"/></clipPath><clipPath id="885b27f197"><path d="M 57.363281 1.085938 L 114.121094 1.085938 L 114.121094 50.300781 L 57.363281 50.300781 Z M 57.363281 1.085938 " clip-rule="nonzero"/></clipPath><clipPath id="697644acbd"><path d="M 99.933594 1.085938 L 71.554688 1.085938 L 57.363281 25.664062 L 71.554688 50.242188 L 99.933594 50.242188 L 114.121094 25.664062 Z M 99.933594 1.085938 " clip-rule="nonzero"/></clipPath><clipPath id="83703f7b87"><path d="M 0.363281 0.0859375 L 57.121094 0.0859375 L 57.121094 49.300781 L 0.363281 49.300781 Z M 0.363281 0.0859375 " clip-rule="nonzero"/></clipPath><clipPath id="e90a598fdf"><path d="M 42.933594 0.0859375 L 14.554688 0.0859375 L 0.363281 24.664062 L 14.554688 49.242188 L 42.933594 49.242188 L 57.121094 24.664062 Z M 42.933594 0.0859375 " clip-rule="nonzero"/></clipPath><clipPath id="6999b20ba8"><rect x="0" width="58" y="0" height="50"/></clipPath><clipPath id="2086fa95f3"><path d="M 28.984375 148.558594 L 85.742188 148.558594 L 85.742188 197.769531 L 28.984375 197.769531 Z M 28.984375 148.558594 " clip-rule="nonzero"/></clipPath><clipPath id="3fcbc134a0"><path d="M 71.554688 148.558594 L 43.175781 148.558594 L 28.984375 173.136719 L 43.175781 197.714844 L 71.554688 197.714844 L 85.742188 173.136719 Z M 71.554688 148.558594 " clip-rule="nonzero"/></clipPath><clipPath id="9999d83a4a"><path d="M 0.984375 0.558594 L 57.742188 0.558594 L 57.742188 49.761719 L 0.984375 49.761719 Z M 0.984375 0.558594 " clip-rule="nonzero"/></clipPath><clipPath id="d6773fec5d"><path d="M 43.554688 0.558594 L 15.175781 0.558594 L 0.984375 25.136719 L 15.175781 49.714844 L 43.554688 49.714844 L 57.742188 25.136719 Z M 43.554688 0.558594 " clip-rule="nonzero"/></clipPath><clipPath id="0a421e3c07"><rect x="0" width="58" y="0" height="50"/></clipPath><clipPath id="2579bb9a6b"><path d="M 57.363281 197.714844 L 114.121094 197.714844 L 114.121094 246.925781 L 57.363281 246.925781 Z M 57.363281 197.714844 " clip-rule="nonzero"/></clipPath><clipPath id="8b41aa2dff"><path d="M 99.933594 197.714844 L 71.554688 197.714844 L 57.363281 222.292969 L 71.554688 246.871094 L 99.933594 246.871094 L 114.121094 222.292969 Z M 99.933594 197.714844 " clip-rule="nonzero"/></clipPath><clipPath id="64afbce38d"><path d="M 0.363281 0.714844 L 57.121094 0.714844 L 57.121094 49.925781 L 0.363281 49.925781 Z M 0.363281 0.714844 " clip-rule="nonzero"/></clipPath><clipPath id="6226db7c2d"><path d="M 42.933594 0.714844 L 14.554688 0.714844 L 0.363281 25.292969 L 14.554688 49.871094 L 42.933594 49.871094 L 57.121094 25.292969 Z M 42.933594 0.714844 " clip-rule="nonzero"/></clipPath><clipPath id="967e1f28c6"><rect x="0" width="58" y="0" height="50"/></clipPath><clipPath id="4bd18f0e05"><path d="M 85.742188 148.558594 L 142.5 148.558594 L 142.5 197.769531 L 85.742188 197.769531 Z M 85.742188 148.558594 " clip-rule="nonzero"/></clipPath><clipPath id="38823d1188"><path d="M 128.3125 148.558594 L 99.933594 148.558594 L 85.742188 173.136719 L 99.933594 197.714844 L 128.3125 197.714844 L 142.5 173.136719 Z M 128.3125 148.558594 " clip-rule="nonzero"/></clipPath><clipPath id="b5ceb04d39"><path d="M 0.742188 0.558594 L 57.5 0.558594 L 57.5 49.761719 L 0.742188 49.761719 Z M 0.742188 0.558594 " clip-rule="nonzero"/></clipPath><clipPath id="198849aa65"><path d="M 43.3125 0.558594 L 14.933594 0.558594 L 0.742188 25.136719 L 14.933594 49.714844 L 43.3125 49.714844 L 57.5 25.136719 Z M 43.3125 0.558594 " clip-rule="nonzero"/></clipPath><clipPath id="3443680e1b"><rect x="0" width="58" y="0" height="50"/></clipPath><clipPath id="857ccf15a2"><path d="M 114.121094 197.714844 L 170.878906 197.714844 L 170.878906 246.925781 L 114.121094 246.925781 Z M 114.121094 197.714844 " clip-rule="nonzero"/></clipPath><clipPath id="300a7f7876"><path d="M 156.6875 197.714844 L 128.3125 197.714844 L 114.121094 222.292969 L 128.3125 246.871094 L 156.6875 246.871094 L 170.878906 222.292969 Z M 156.6875 197.714844 " clip-rule="nonzero"/></clipPath><clipPath id="7853fb01e7"><path d="M 0.121094 0.714844 L 56.878906 0.714844 L 56.878906 49.925781 L 0.121094 49.925781 Z M 0.121094 0.714844 " clip-rule="nonzero"/></clipPath><clipPath id="16b20a64d6"><path d="M 42.6875 0.714844 L 14.3125 0.714844 L 0.121094 25.292969 L 14.3125 49.871094 L 42.6875 49.871094 L 56.878906 25.292969 Z M 42.6875 0.714844 " clip-rule="nonzero"/></clipPath><clipPath id="edd2bb7e9b"><rect x="0" width="57" y="0" height="50"/></clipPath><clipPath id="0ba5c77904"><path d="M 142.5 148.558594 L 199.257812 148.558594 L 199.257812 197.769531 L 142.5 197.769531 Z M 142.5 148.558594 " clip-rule="nonzero"/></clipPath><clipPath id="9e4ab6062d"><path d="M 185.066406 148.558594 L 156.6875 148.558594 L 142.5 173.136719 L 156.6875 197.714844 L 185.066406 197.714844 L 199.257812 173.136719 Z M 185.066406 148.558594 " clip-rule="nonzero"/></clipPath><clipPath id="454bd3f9d0"><path d="M 0.5 0.558594 L 57.257812 0.558594 L 57.257812 49.761719 L 0.5 49.761719 Z M 0.5 0.558594 " clip-rule="nonzero"/></clipPath><clipPath id="888473ba2f"><path d="M 43.066406 0.558594 L 14.6875 0.558594 L 0.5 25.136719 L 14.6875 49.714844 L 43.066406 49.714844 L 57.257812 25.136719 Z M 43.066406 0.558594 " clip-rule="nonzero"/></clipPath><clipPath id="ab2f3024a7"><rect x="0" width="58" y="0" height="50"/></clipPath><clipPath id="980588f6cc"><path d="M 57.363281 99.398438 L 114.121094 99.398438 L 114.121094 148.613281 L 57.363281 148.613281 Z M 57.363281 99.398438 " clip-rule="nonzero"/></clipPath><clipPath id="b21096d473"><path d="M 99.933594 99.398438 L 71.554688 99.398438 L 57.363281 123.980469 L 71.554688 148.558594 L 99.933594 148.558594 L 114.121094 123.980469 Z M 99.933594 99.398438 " clip-rule="nonzero"/></clipPath><clipPath id="c08503ed50"><path d="M 0.363281 0.398438 L 57.121094 0.398438 L 57.121094 49.558594 L 0.363281 49.558594 Z M 0.363281 0.398438 " clip-rule="nonzero"/></clipPath><clipPath id="cac5768682"><path d="M 42.933594 0.398438 L 14.554688 0.398438 L 0.363281 24.980469 L 14.554688 49.558594 L 42.933594 49.558594 L 57.121094 24.980469 Z M 42.933594 0.398438 " clip-rule="nonzero"/></clipPath><clipPath id="2babeacc61"><rect x="0" width="58" y="0" height="50"/></clipPath><clipPath id="6912f80759"><path d="M 114.121094 99.398438 L 170.878906 99.398438 L 170.878906 148.613281 L 114.121094 148.613281 Z M 114.121094 99.398438 " clip-rule="nonzero"/></clipPath><clipPath id="c6f846c411"><path d="M 156.6875 99.398438 L 128.3125 99.398438 L 114.121094 123.980469 L 128.3125 148.558594 L 156.6875 148.558594 L 170.878906 123.980469 Z M 156.6875 99.398438 " clip-rule="nonzero"/></clipPath><clipPath id="ffd45b1c53"><path d="M 0.121094 0.398438 L 56.878906 0.398438 L 56.878906 49.558594 L 0.121094 49.558594 Z M 0.121094 0.398438 " clip-rule="nonzero"/></clipPath><clipPath id="d7738978f1"><path d="M 42.6875 0.398438 L 14.3125 0.398438 L 0.121094 24.980469 L 14.3125 49.558594 L 42.6875 49.558594 L 56.878906 24.980469 Z M 42.6875 0.398438 " clip-rule="nonzero"/></clipPath><clipPath id="4f5143b40c"><rect x="0" width="57" y="0" height="50"/></clipPath><clipPath id="eeb190d354"><path d="M 170.878906 99.398438 L 227.636719 99.398438 L 227.636719 148.613281 L 170.878906 148.613281 Z M 170.878906 99.398438 " clip-rule="nonzero"/></clipPath><clipPath id="cb5c9e61a3"><path d="M 213.445312 99.398438 L 185.066406 99.398438 L 170.878906 123.980469 L 185.066406 148.558594 L 213.445312 148.558594 L 227.636719 123.980469 Z M 213.445312 99.398438 " clip-rule="nonzero"/></clipPath><clipPath id="275a2d2aaf"><path d="M 0.878906 0.398438 L 57.636719 0.398438 L 57.636719 49.558594 L 0.878906 49.558594 Z M 0.878906 0.398438 " clip-rule="nonzero"/></clipPath><clipPath id="1c0af0e7ef"><path d="M 43.445312 0.398438 L 15.066406 0.398438 L 0.878906 24.980469 L 15.066406 49.558594 L 43.445312 49.558594 L 57.636719 24.980469 Z M 43.445312 0.398438 " clip-rule="nonzero"/></clipPath><clipPath id="b84dc9cb66"><rect x="0" width="58" y="0" height="50"/></clipPath><clipPath id="7e50d42af1"><path d="M 85.742188 50.242188 L 142.5 50.242188 L 142.5 99.457031 L 85.742188 99.457031 Z M 85.742188 50.242188 " clip-rule="nonzero"/></clipPath><clipPath id="9369191d11"><path d="M 128.3125 50.242188 L 99.933594 50.242188 L 85.742188 74.820312 L 99.933594 99.398438 L 128.3125 99.398438 L 142.5 74.820312 Z M 128.3125 50.242188 " clip-rule="nonzero"/></clipPath><clipPath id="aaba0eaa2f"><path d="M 0.742188 0.242188 L 57.5 0.242188 L 57.5 49.457031 L 0.742188 49.457031 Z M 0.742188 0.242188 " clip-rule="nonzero"/></clipPath><clipPath id="0baf0454fb"><path d="M 43.3125 0.242188 L 14.933594 0.242188 L 0.742188 24.820312 L 14.933594 49.398438 L 43.3125 49.398438 L 57.5 24.820312 Z M 43.3125 0.242188 " clip-rule="nonzero"/></clipPath><clipPath id="b71f7f572d"><rect x="0" width="58" y="0" height="50"/></clipPath><clipPath id="03835d3fb9"><path d="M 142.5 50.242188 L 199.257812 50.242188 L 199.257812 99.457031 L 142.5 99.457031 Z M 142.5 50.242188 " clip-rule="nonzero"/></clipPath><clipPath id="c1f07f3aa6"><path d="M 185.066406 50.242188 L 156.6875 50.242188 L 142.5 74.820312 L 156.6875 99.398438 L 185.066406 99.398438 L 199.257812 74.820312 Z M 185.066406 50.242188 " clip-rule="nonzero"/></clipPath><clipPath id="3614ce3d1e"><path d="M 0.5 0.242188 L 57.257812 0.242188 L 57.257812 49.457031 L 0.5 49.457031 Z M 0.5 0.242188 " clip-rule="nonzero"/></clipPath><clipPath id="daadf876c4"><path d="M 43.066406 0.242188 L 14.6875 0.242188 L 0.5 24.820312 L 14.6875 49.398438 L 43.066406 49.398438 L 57.257812 24.820312 Z M 43.066406 0.242188 " clip-rule="nonzero"/></clipPath><clipPath id="1d1b441f16"><rect x="0" width="58" y="0" height="50"/></clipPath><clipPath id="e250bb7bf9"><path d="M 114.121094 1.085938 L 170.878906 1.085938 L 170.878906 50.300781 L 114.121094 50.300781 Z M 114.121094 1.085938 " clip-rule="nonzero"/></clipPath><clipPath id="34bcfd5d6b"><path d="M 156.6875 1.085938 L 128.3125 1.085938 L 114.121094 25.664062 L 128.3125 50.242188 L 156.6875 50.242188 L 170.878906 25.664062 Z M 156.6875 1.085938 " clip-rule="nonzero"/></clipPath><clipPath id="21c21ae476"><path d="M 0.121094 0.0859375 L 56.878906 0.0859375 L 56.878906 49.300781 L 0.121094 49.300781 Z M 0.121094 0.0859375 " clip-rule="nonzero"/></clipPath><clipPath id="66bf2448da"><path d="M 42.6875 0.0859375 L 14.3125 0.0859375 L 0.121094 24.664062 L 14.3125 49.242188 L 42.6875 49.242188 L 56.878906 24.664062 Z M 42.6875 0.0859375 " clip-rule="nonzero"/></clipPath><clipPath id="77c8cd8a55"><rect x="0" width="57" y="0" height="50"/></clipPath><clipPath id="2a5eeac439"><path d="M 170.878906 1.085938 L 227.636719 1.085938 L 227.636719 50.300781 L 170.878906 50.300781 Z M 170.878906 1.085938 " clip-rule="nonzero"/></clipPath><clipPath id="80c2637d24"><path d="M 213.445312 1.085938 L 185.066406 1.085938 L 170.878906 25.664062 L 185.066406 50.242188 L 213.445312 50.242188 L 227.636719 25.664062 Z M 213.445312 1.085938 " clip-rule="nonzero"/></clipPath><clipPath id="685b415236"><path d="M 0.878906 0.0859375 L 57.636719 0.0859375 L 57.636719 49.300781 L 0.878906 49.300781 Z M 0.878906 0.0859375 " clip-rule="nonzero"/></clipPath><clipPath id="1a52ebd6ad"><path d="M 43.445312 0.0859375 L 15.066406 0.0859375 L 0.878906 24.664062 L 15.066406 49.242188 L 43.445312 49.242188 L 57.636719 24.664062 Z M 43.445312 0.0859375 " clip-rule="nonzero"/></clipPath><clipPath id="8b3a5704ec"><rect x="0" width="58" y="0" height="50"/></clipPath><clipPath id="8f8ab290a5"><path d="M 199.257812 50.242188 L 256.015625 50.242188 L 256.015625 99.457031 L 199.257812 99.457031 Z M 199.257812 50.242188 " clip-rule="nonzero"/></clipPath><clipPath id="78dbd63750"><path d="M 241.824219 50.242188 L 213.445312 50.242188 L 199.257812 74.820312 L 213.445312 99.398438 L 241.824219 99.398438 L 256.015625 74.820312 Z M 241.824219 50.242188 " clip-rule="nonzero"/></clipPath><clipPath id="6df068789a"><path d="M 0.257812 0.242188 L 57.015625 0.242188 L 57.015625 49.457031 L 0.257812 49.457031 Z M 0.257812 0.242188 " clip-rule="nonzero"/></clipPath><clipPath id="be2f009a45"><path d="M 42.824219 0.242188 L 14.445312 0.242188 L 0.257812 24.820312 L 14.445312 49.398438 L 42.824219 49.398438 L 57.015625 24.820312 Z M 42.824219 0.242188 " clip-rule="nonzero"/></clipPath><clipPath id="f03a4e109f"><rect x="0" width="58" y="0" height="50"/></clipPath><clipPath id="52583bf5e6"><path d="M 170.878906 197.714844 L 227.636719 197.714844 L 227.636719 246.925781 L 170.878906 246.925781 Z M 170.878906 197.714844 " clip-rule="nonzero"/></clipPath><clipPath id="d9bbe03281"><path d="M 213.445312 197.714844 L 185.066406 197.714844 L 170.878906 222.292969 L 185.066406 246.871094 L 213.445312 246.871094 L 227.636719 222.292969 Z M 213.445312 197.714844 " clip-rule="nonzero"/></clipPath><clipPath id="326b496dbf"><path d="M 0.878906 0.714844 L 57.636719 0.714844 L 57.636719 49.925781 L 0.878906 49.925781 Z M 0.878906 0.714844 " clip-rule="nonzero"/></clipPath><clipPath id="1c54e9d46f"><path d="M 43.445312 0.714844 L 15.066406 0.714844 L 0.878906 25.292969 L 15.066406 49.871094 L 43.445312 49.871094 L 57.636719 25.292969 Z M 43.445312 0.714844 " clip-rule="nonzero"/></clipPath><clipPath id="d1192e7daf"><rect x="0" width="58" y="0" height="50"/></clipPath><clipPath id="a9dc31dda2"><path d="M 199.257812 148.558594 L 256.015625 148.558594 L 256.015625 197.769531 L 199.257812 197.769531 Z M 199.257812 148.558594 " clip-rule="nonzero"/></clipPath><clipPath id="4fce4fcf52"><path d="M 241.824219 148.558594 L 213.445312 148.558594 L 199.257812 173.136719 L 213.445312 197.714844 L 241.824219 197.714844 L 256.015625 173.136719 Z M 241.824219 148.558594 " clip-rule="nonzero"/></clipPath><clipPath id="1edc5fff86"><path d="M 0.257812 0.558594 L 57.015625 0.558594 L 57.015625 49.761719 L 0.257812 49.761719 Z M 0.257812 0.558594 " clip-rule="nonzero"/></clipPath><clipPath id="c3f4a230d3"><path d="M 42.824219 0.558594 L 14.445312 0.558594 L 0.257812 25.136719 L 14.445312 49.714844 L 42.824219 49.714844 L 57.015625 25.136719 Z M 42.824219 0.558594 " clip-rule="nonzero"/></clipPath><clipPath id="a6d4a69fc0"><rect x="0" width="58" y="0" height="50"/></clipPath><clipPath id="8ff6ff57ae"><path d="M 227.636719 99.398438 L 284.394531 99.398438 L 284.394531 148.613281 L 227.636719 148.613281 Z M 227.636719 99.398438 " clip-rule="nonzero"/></clipPath><clipPath id="bace6e9820"><path d="M 270.203125 99.398438 L 241.824219 99.398438 L 227.636719 123.980469 L 241.824219 148.558594 L 270.203125 148.558594 L 284.394531 123.980469 Z M 270.203125 99.398438 " clip-rule="nonzero"/></clipPath><clipPath id="acf618e85f"><path d="M 0.636719 0.398438 L 57.394531 0.398438 L 57.394531 49.558594 L 0.636719 49.558594 Z M 0.636719 0.398438 " clip-rule="nonzero"/></clipPath><clipPath id="ea2dec1064"><path d="M 43.203125 0.398438 L 14.824219 0.398438 L 0.636719 24.980469 L 14.824219 49.558594 L 43.203125 49.558594 L 57.394531 24.980469 Z M 43.203125 0.398438 " clip-rule="nonzero"/></clipPath><clipPath id="8816a0daa6"><rect x="0" width="58" y="0" height="50"/></clipPath><clipPath id="658c396626"><rect x="0" width="285" y="0" height="247"/></clipPath><clipPath id="affd039360"><rect x="0" width="259" y="0" height="49"/></clipPath></defs><g clip-path="url(#a62216c025)"><g clip-path="url(#d7053c5676)"><g transform="matrix(1, 0, 0, 1, 16, 18)"><g clip-path="url(#67bdfb4b6b)"><g clip-path="url(#bfbf7294a9)"><g clip-path="url(#6b13676048)"><path fill="#000000" d="M 0.820312 0.15625 L 342.179688 0.15625 L 342.179688 296.136719 L 0.820312 296.136719 Z M 0.820312 0.15625 " fill-opacity="1" fill-rule="nonzero"/></g></g></g></g></g></g><g clip-path="url(#8b0fe6c3ea)"><g clip-path="url(#da1855ae53)"><g transform="matrix(1, 0, 0, 1, 30, 29)"><g clip-path="url(#0156a473d4)"><g clip-path="url(#d87d3d2b10)"><g clip-path="url(#0e3c40ea17)"><path fill="#ffffff" d="M 0.0429688 0.605469 L 314.957031 0.605469 L 314.957031 273.660156 L 0.0429688 273.660156 Z M 0.0429688 0.605469 " fill-opacity="1" fill-rule="nonzero"/></g></g></g></g></g></g><g transform="matrix(1, 0, 0, 1, 45, 42)"><g clip-path="url(#658c396626)"><g clip-path="url(#de009e49f0)"><g clip-path="url(#a13092b428)"><g transform="matrix(1, 0, 0, 1, 28, 50)"><g clip-path="url(#47e6180523)"><g clip-path="url(#2d9212cc23)"><g clip-path="url(#9ea6493365)"><path fill="#000000" d="M 0.984375 0.242188 L 57.742188 0.242188 L 57.742188 49.457031 L 0.984375 49.457031 Z M 0.984375 0.242188 " fill-opacity="1" fill-rule="nonzero"/></g></g></g></g></g></g><g clip-path="url(#6aaa747ab8)"><g clip-path="url(#f548c9982d)"><g transform="matrix(1, 0, 0, 1, -0.000000000000007105, 99)"><g clip-path="url(#f617d6cb72)"><g clip-path="url(#1fbbda6c78)"><g clip-path="url(#86f2413048)"><path fill="#000000" d="M 0.605469 0.398438 L 57.363281 0.398438 L 57.363281 49.613281 L 0.605469 49.613281 Z M 0.605469 0.398438 " fill-opacity="1" fill-rule="nonzero"/></g></g></g></g></g></g><g clip-path="url(#885b27f197)"><g clip-path="url(#697644acbd)"><g transform="matrix(1, 0, 0, 1, 57, 1)"><g clip-path="url(#6999b20ba8)"><g clip-path="url(#83703f7b87)"><g clip-path="url(#e90a598fdf)"><path fill="#000000" d="M 0.363281 0.0859375 L 57.121094 0.0859375 L 57.121094 49.300781 L 0.363281 49.300781 Z M 0.363281 0.0859375 " fill-opacity="1" fill-rule="nonzero"/></g></g></g></g></g></g><g clip-path="url(#2086fa95f3)"><g clip-path="url(#3fcbc134a0)"><g transform="matrix(1, 0, 0, 1, 28, 148)"><g clip-path="url(#0a421e3c07)"><g clip-path="url(#9999d83a4a)"><g clip-path="url(#d6773fec5d)"><path fill="#000000" d="M 0.984375 0.558594 L 57.742188 0.558594 L 57.742188 49.769531 L 0.984375 49.769531 Z M 0.984375 0.558594 " fill-opacity="1" fill-rule="nonzero"/></g></g></g></g></g></g><g clip-path="url(#2579bb9a6b)"><g clip-path="url(#8b41aa2dff)"><g transform="matrix(1, 0, 0, 1, 57, 197)"><g clip-path="url(#967e1f28c6)"><g clip-path="url(#64afbce38d)"><g clip-path="url(#6226db7c2d)"><path fill="#000000" d="M 0.363281 0.714844 L 57.121094 0.714844 L 57.121094 49.925781 L 0.363281 49.925781 Z M 0.363281 0.714844 " fill-opacity="1" fill-rule="nonzero"/></g></g></g></g></g></g><g clip-path="url(#4bd18f0e05)"><g clip-path="url(#38823d1188)"><g transform="matrix(1, 0, 0, 1, 85, 148)"><g clip-path="url(#3443680e1b)"><g clip-path="url(#b5ceb04d39)"><g clip-path="url(#198849aa65)"><path fill="#000000" d="M 0.742188 0.558594 L 57.5 0.558594 L 57.5 49.769531 L 0.742188 49.769531 Z M 0.742188 0.558594 " fill-opacity="1" fill-rule="nonzero"/></g></g></g></g></g></g><g clip-path="url(#857ccf15a2)"><g clip-path="url(#300a7f7876)"><g transform="matrix(1, 0, 0, 1, 114, 197)"><g clip-path="url(#edd2bb7e9b)"><g clip-path="url(#7853fb01e7)"><g clip-path="url(#16b20a64d6)"><path fill="#000000" d="M 0.121094 0.714844 L 56.878906 0.714844 L 56.878906 49.925781 L 0.121094 49.925781 Z M 0.121094 0.714844 " fill-opacity="1" fill-rule="nonzero"/></g></g></g></g></g></g><g clip-path="url(#0ba5c77904)"><g clip-path="url(#9e4ab6062d)"><g transform="matrix(1, 0, 0, 1, 142, 148)"><g clip-path="url(#ab2f3024a7)"><g clip-path="url(#454bd3f9d0)"><g clip-path="url(#888473ba2f)"><path fill="#000000" d="M 0.5 0.558594 L 57.257812 0.558594 L 57.257812 49.769531 L 0.5 49.769531 Z M 0.5 0.558594 " fill-opacity="1" fill-rule="nonzero"/></g></g></g></g></g></g><g clip-path="url(#980588f6cc)"><g clip-path="url(#b21096d473)"><g transform="matrix(1, 0, 0, 1, 57, 99)"><g clip-path="url(#2babeacc61)"><g clip-path="url(#c08503ed50)"><g clip-path="url(#cac5768682)"><path fill="#000000" d="M 0.363281 0.398438 L 57.121094 0.398438 L 57.121094 49.613281 L 0.363281 49.613281 Z M 0.363281 0.398438 " fill-opacity="1" fill-rule="nonzero"/></g></g></g></g></g></g><g clip-path="url(#6912f80759)"><g clip-path="url(#c6f846c411)"><g transform="matrix(1, 0, 0, 1, 114, 99)"><g clip-path="url(#4f5143b40c)"><g clip-path="url(#ffd45b1c53)"><g clip-path="url(#d7738978f1)"><path fill="#000000" d="M 0.121094 0.398438 L 56.878906 0.398438 L 56.878906 49.613281 L 0.121094 49.613281 Z M 0.121094 0.398438 " fill-opacity="1" fill-rule="nonzero"/></g></g></g></g></g></g><g clip-path="url(#eeb190d354)"><g clip-path="url(#cb5c9e61a3)"><g transform="matrix(1, 0, 0, 1, 170, 99)"><g clip-path="url(#b84dc9cb66)"><g clip-path="url(#275a2d2aaf)"><g clip-path="url(#1c0af0e7ef)"><path fill="#000000" d="M 0.878906 0.398438 L 57.636719 0.398438 L 57.636719 49.613281 L 0.878906 49.613281 Z M 0.878906 0.398438 " fill-opacity="1" fill-rule="nonzero"/></g></g></g></g></g></g><g clip-path="url(#7e50d42af1)"><g clip-path="url(#9369191d11)"><g transform="matrix(1, 0, 0, 1, 85, 50)"><g clip-path="url(#b71f7f572d)"><g clip-path="url(#aaba0eaa2f)"><g clip-path="url(#0baf0454fb)"><path fill="#000000" d="M 0.742188 0.242188 L 57.5 0.242188 L 57.5 49.457031 L 0.742188 49.457031 Z M 0.742188 0.242188 " fill-opacity="1" fill-rule="nonzero"/></g></g></g></g></g></g><g clip-path="url(#03835d3fb9)"><g clip-path="url(#c1f07f3aa6)"><g transform="matrix(1, 0, 0, 1, 142, 50)"><g clip-path="url(#1d1b441f16)"><g clip-path="url(#3614ce3d1e)"><g clip-path="url(#daadf876c4)"><path fill="#000000" d="M 0.5 0.242188 L 57.257812 0.242188 L 57.257812 49.457031 L 0.5 49.457031 Z M 0.5 0.242188 " fill-opacity="1" fill-rule="nonzero"/></g></g></g></g></g></g><g clip-path="url(#e250bb7bf9)"><g clip-path="url(#34bcfd5d6b)"><g transform="matrix(1, 0, 0, 1, 114, 1)"><g clip-path="url(#77c8cd8a55)"><g clip-path="url(#21c21ae476)"><g clip-path="url(#66bf2448da)"><path fill="#000000" d="M 0.121094 0.0859375 L 56.878906 0.0859375 L 56.878906 49.300781 L 0.121094 49.300781 Z M 0.121094 0.0859375 " fill-opacity="1" fill-rule="nonzero"/></g></g></g></g></g></g><g clip-path="url(#2a5eeac439)"><g clip-path="url(#80c2637d24)"><g transform="matrix(1, 0, 0, 1, 170, 1)"><g clip-path="url(#8b3a5704ec)"><g clip-path="url(#685b415236)"><g clip-path="url(#1a52ebd6ad)"><path fill="#000000" d="M 0.878906 0.0859375 L 57.636719 0.0859375 L 57.636719 49.300781 L 0.878906 49.300781 Z M 0.878906 0.0859375 " fill-opacity="1" fill-rule="nonzero"/></g></g></g></g></g></g><g clip-path="url(#8f8ab290a5)"><g clip-path="url(#78dbd63750)"><g transform="matrix(1, 0, 0, 1, 199, 50)"><g clip-path="url(#f03a4e109f)"><g clip-path="url(#6df068789a)"><g clip-path="url(#be2f009a45)"><path fill="#000000" d="M 0.257812 0.242188 L 57.015625 0.242188 L 57.015625 49.457031 L 0.257812 49.457031 Z M 0.257812 0.242188 " fill-opacity="1" fill-rule="nonzero"/></g></g></g></g></g></g><g clip-path="url(#52583bf5e6)"><g clip-path="url(#d9bbe03281)"><g transform="matrix(1, 0, 0, 1, 170, 197)"><g clip-path="url(#d1192e7daf)"><g clip-path="url(#326b496dbf)"><g clip-path="url(#1c54e9d46f)"><path fill="#000000" d="M 0.878906 0.714844 L 57.636719 0.714844 L 57.636719 49.925781 L 0.878906 49.925781 Z M 0.878906 0.714844 " fill-opacity="1" fill-rule="nonzero"/></g></g></g></g></g></g><g clip-path="url(#a9dc31dda2)"><g clip-path="url(#4fce4fcf52)"><g transform="matrix(1, 0, 0, 1, 199, 148)"><g clip-path="url(#a6d4a69fc0)"><g clip-path="url(#1edc5fff86)"><g clip-path="url(#c3f4a230d3)"><path fill="#000000" d="M 0.257812 0.558594 L 57.015625 0.558594 L 57.015625 49.769531 L 0.257812 49.769531 Z M 0.257812 0.558594 " fill-opacity="1" fill-rule="nonzero"/></g></g></g></g></g></g><g clip-path="url(#8ff6ff57ae)"><g clip-path="url(#bace6e9820)"><g transform="matrix(1, 0, 0, 1, 227, 99)"><g clip-path="url(#8816a0daa6)"><g clip-path="url(#acf618e85f)"><g clip-path="url(#ea2dec1064)"><path fill="#000000" d="M 0.636719 0.398438 L 57.394531 0.398438 L 57.394531 49.613281 L 0.636719 49.613281 Z M 0.636719 0.398438 " fill-opacity="1" fill-rule="nonzero"/></g></g></g></g></g></g></g></g><g transform="matrix(1, 0, 0, 1, 61, 323)"><g clip-path="url(#affd039360)"><g fill="#000000" fill-opacity="1"><g transform="translate(2.999992, 38.041285)"><g><path d="M 21.171875 -5.84375 L 8.515625 -5.84375 L 6.109375 0 L -0.34375 0 L 11.78125 -27.234375 L 18.015625 -27.234375 L 30.1875 0 L 23.578125 0 Z M 19.1875 -10.625 L 14.859375 -21.046875 L 10.546875 -10.625 Z M 19.1875 -10.625 "/></g></g></g><g fill="#000000" fill-opacity="1"><g transform="translate(40.576953, 38.041285)"><g><path d="M 23.234375 -14.15625 C 24.785156 -13.664062 26 -12.84375 26.875 -11.6875 C 27.757812 -10.53125 28.203125 -9.113281 28.203125 -7.4375 C 28.203125 -5.050781 27.273438 -3.210938 25.421875 -1.921875 C 23.566406 -0.640625 20.863281 0 17.3125 0 L 3.234375 0 L 3.234375 -27.234375 L 16.53125 -27.234375 C 19.851562 -27.234375 22.398438 -26.597656 24.171875 -25.328125 C 25.953125 -24.054688 26.84375 -22.332031 26.84375 -20.15625 C 26.84375 -18.832031 26.523438 -17.648438 25.890625 -16.609375 C 25.253906 -15.578125 24.367188 -14.757812 23.234375 -14.15625 Z M 9.5 -22.484375 L 9.5 -16.0625 L 15.75 -16.0625 C 17.3125 -16.0625 18.492188 -16.332031 19.296875 -16.875 C 20.097656 -17.425781 20.5 -18.234375 20.5 -19.296875 C 20.5 -20.359375 20.097656 -21.15625 19.296875 -21.6875 C 18.492188 -22.21875 17.3125 -22.484375 15.75 -22.484375 Z M 16.84375 -4.75 C 18.507812 -4.75 19.757812 -5.019531 20.59375 -5.5625 C 21.4375 -6.101562 21.859375 -6.945312 21.859375 -8.09375 C 21.859375 -10.351562 20.1875 -11.484375 16.84375 -11.484375 L 9.5 -11.484375 L 9.5 -4.75 Z M 16.84375 -4.75 "/></g></g></g><g fill="#000000" fill-opacity="1"><g transform="translate(78.114999, 38.041285)"><g><path d="M 21.171875 -5.84375 L 8.515625 -5.84375 L 6.109375 0 L -0.34375 0 L 11.78125 -27.234375 L 18.015625 -27.234375 L 30.1875 0 L 23.578125 0 Z M 19.1875 -10.625 L 14.859375 -21.046875 L 10.546875 -10.625 Z M 19.1875 -10.625 "/></g></g></g><g fill="#000000" fill-opacity="1"><g transform="translate(115.691959, 38.041285)"><g><path d="M 20.578125 0 L 15.328125 -7.59375 L 9.53125 -7.59375 L 9.53125 0 L 3.234375 0 L 3.234375 -27.234375 L 15.015625 -27.234375 C 17.429688 -27.234375 19.523438 -26.832031 21.296875 -26.03125 C 23.078125 -25.226562 24.445312 -24.085938 25.40625 -22.609375 C 26.363281 -21.128906 26.84375 -19.378906 26.84375 -17.359375 C 26.84375 -15.328125 26.351562 -13.578125 25.375 -12.109375 C 24.40625 -10.648438 23.03125 -9.53125 21.25 -8.75 L 27.34375 0 Z M 20.46875 -17.359375 C 20.46875 -18.878906 19.972656 -20.046875 18.984375 -20.859375 C 18.003906 -21.679688 16.566406 -22.09375 14.671875 -22.09375 L 9.53125 -22.09375 L 9.53125 -12.609375 L 14.671875 -12.609375 C 16.566406 -12.609375 18.003906 -13.019531 18.984375 -13.84375 C 19.972656 -14.675781 20.46875 -15.847656 20.46875 -17.359375 Z M 20.46875 -17.359375 "/></g></g></g><g fill="#000000" fill-opacity="1"><g transform="translate(152.06304, 38.041285)"><g><path d="M 16.265625 0.46875 C 13.484375 0.46875 10.972656 -0.132812 8.734375 -1.34375 C 6.492188 -2.550781 4.726562 -4.222656 3.4375 -6.359375 C 2.15625 -8.503906 1.515625 -10.925781 1.515625 -13.625 C 1.515625 -16.3125 2.15625 -18.722656 3.4375 -20.859375 C 4.726562 -23.003906 6.492188 -24.679688 8.734375 -25.890625 C 10.972656 -27.097656 13.492188 -27.703125 16.296875 -27.703125 C 18.660156 -27.703125 20.796875 -27.285156 22.703125 -26.453125 C 24.609375 -25.628906 26.207031 -24.4375 27.5 -22.875 L 23.453125 -19.140625 C 21.617188 -21.265625 19.335938 -22.328125 16.609375 -22.328125 C 14.921875 -22.328125 13.414062 -21.957031 12.09375 -21.21875 C 10.769531 -20.476562 9.738281 -19.445312 9 -18.125 C 8.257812 -16.800781 7.890625 -15.300781 7.890625 -13.625 C 7.890625 -11.9375 8.257812 -10.429688 9 -9.109375 C 9.738281 -7.785156 10.769531 -6.753906 12.09375 -6.015625 C 13.414062 -5.273438 14.921875 -4.90625 16.609375 -4.90625 C 19.335938 -4.90625 21.617188 -5.976562 23.453125 -8.125 L 27.5 -4.390625 C 26.207031 -2.804688 24.597656 -1.597656 22.671875 -0.765625 C 20.753906 0.0546875 18.617188 0.46875 16.265625 0.46875 Z M 16.265625 0.46875 "/></g></g></g><g fill="#000000" fill-opacity="1"><g transform="translate(188.356328, 38.041285)"><g><path d="M 21.171875 -5.84375 L 8.515625 -5.84375 L 6.109375 0 L -0.34375 0 L 11.78125 -27.234375 L 18.015625 -27.234375 L 30.1875 0 L 23.578125 0 Z M 19.1875 -10.625 L 14.859375 -21.046875 L 10.546875 -10.625 Z M 19.1875 -10.625 "/></g></g></g><g fill="#000000" fill-opacity="1"><g transform="translate(225.933288, 38.041285)"><g><path d="M 8.875 -22.09375 L 0.15625 -22.09375 L 0.15625 -27.234375 L 23.890625 -27.234375 L 23.890625 -22.09375 L 15.171875 -22.09375 L 15.171875 0 L 8.875 0 Z M 8.875 -22.09375 "/></g></g></g></g></g></svg>